{"glyphs":{"0":{"ha":949,"x_min":35,"x_max":914,"o":"m 475 -19 q 152 118 269 -19 q 35 499 35 256 q 155 878 35 738 q 472 1019 275 1019 q 792 878 669 1019 q 914 499 914 738 q 797 118 914 256 q 475 -19 679 -19 m 474 244 q 588 308 547 244 q 629 483 629 371 q 588 658 629 594 q 472 721 546 721 q 360 658 400 721 q 319 483 319 596 q 360 308 319 371 q 474 244 401 244 z "},"1":{"ha":642,"x_min":7,"x_max":575,"o":"m 168 549 l 7 742 q 269 1000 163 871 l 575 1000 l 575 0 l 297 0 l 297 661 q 168 549 247 603 z "},"2":{"ha":753,"x_min":28,"x_max":718,"o":"m 46 0 l 46 229 q 285 424 208 354 q 387 538 361 494 q 413 633 413 582 q 303 721 413 721 q 49 657 185 721 l 28 949 q 353 1019 189 1019 q 615 936 526 1019 q 704 717 704 853 q 638 499 704 596 q 385 257 571 401 l 718 257 l 718 0 l 46 0 z "},"3":{"ha":744,"x_min":21,"x_max":717,"o":"m 21 28 l 42 285 q 297 244 147 244 q 401 263 371 244 q 432 321 432 281 q 399 369 432 357 q 293 382 365 382 l 201 382 l 201 604 l 271 604 q 410 664 410 604 q 296 721 410 721 q 53 665 178 721 l 32 957 q 350 1019 171 1019 q 605 952 515 1019 q 694 757 694 885 q 583 544 694 624 q 717 297 717 472 q 613 63 717 146 q 340 -19 508 -19 q 21 28 169 -19 z "},"4":{"ha":858,"x_min":14,"x_max":851,"o":"m 14 168 l 14 388 l 415 1000 l 721 1000 l 721 390 l 851 390 l 851 168 l 721 168 l 721 0 l 457 0 l 457 168 l 14 168 m 269 390 l 457 390 l 457 685 l 269 390 z "},"5":{"ha":746,"x_min":28,"x_max":718,"o":"m 150 1000 l 676 1000 l 676 715 l 349 715 l 338 629 q 411 635 367 635 q 635 562 553 635 q 718 338 718 489 q 608 71 718 161 q 303 -19 497 -19 q 28 18 149 -19 l 49 275 q 272 244 138 244 q 433 335 433 244 q 397 394 433 374 q 271 414 361 414 q 65 400 169 414 l 150 1000 z "},"6":{"ha":843,"x_min":28,"x_max":822,"o":"m 522 1019 q 740 992 657 1019 l 719 700 q 556 721 633 721 q 324 586 357 721 q 501 640 382 640 q 737 567 651 640 q 822 346 822 493 q 722 90 822 179 q 443 0 621 0 q 135 125 242 0 q 28 493 28 250 q 163 881 28 743 q 522 1019 297 1019 m 432 250 q 510 274 482 250 q 538 343 538 299 q 509 410 538 386 q 426 435 481 435 q 311 410 364 435 q 338 294 308 338 q 432 250 367 250 z "},"7":{"ha":758,"x_min":28,"x_max":738,"o":"m 54 0 l 438 715 l 28 715 l 28 1000 l 738 1000 l 738 729 l 374 0 l 54 0 z "},"8":{"ha":838,"x_min":21,"x_max":817,"o":"m 21 300 q 53 433 21 374 q 140 529 85 493 q 72 611 97 560 q 46 724 46 663 q 142 938 46 857 q 417 1019 239 1019 q 694 939 596 1019 q 792 724 792 858 q 766 610 792 663 q 696 528 740 558 q 785 433 753 493 q 817 300 817 374 q 711 65 817 150 q 418 -19 606 -19 q 126 65 231 -19 q 21 300 21 150 m 418 569 q 483 592 460 569 q 507 653 507 614 q 483 713 507 692 q 415 735 458 735 q 353 713 375 735 q 331 653 331 692 q 354 592 331 614 q 418 569 378 569 m 306 294 q 335 222 306 249 q 418 196 364 196 q 502 222 472 196 q 532 294 532 249 q 501 373 532 344 q 415 401 469 401 q 334 373 363 401 q 306 294 306 344 z "},"9":{"ha":842,"x_min":21,"x_max":814,"o":"m 318 0 q 103 28 183 0 l 124 271 q 292 250 211 250 q 455 285 404 250 q 518 385 506 321 q 335 331 460 331 q 107 411 193 331 q 21 629 21 492 q 124 918 21 817 q 408 1019 228 1019 q 709 898 604 1019 q 814 536 814 776 q 683 140 814 279 q 318 0 553 0 m 414 721 q 335 697 364 721 q 306 628 306 672 q 335 560 306 585 q 419 536 364 536 q 531 561 481 536 q 505 677 533 633 q 414 721 476 721 z "},"\u0000":{"ha":0,"x_min":0,"x_max":0,"o":""},"\r":{"ha":0,"x_min":0,"x_max":0,"o":""}," ":{"ha":292,"x_min":0,"x_max":0,"o":""},"!":{"ha":431,"x_min":63,"x_max":368,"o":"m 104 353 l 64 1056 l 365 1056 l 325 353 l 104 353 m 324 25 q 301 3 324 25 q 215 -19 279 -19 q 107 25 151 -19 q 63 133 63 69 q 107 241 63 196 q 215 286 151 286 q 324 241 279 286 q 368 133 368 196 q 324 25 368 69 z "},"\"":{"ha":694,"x_min":42,"x_max":653,"o":"m 92 653 l 42 1056 l 328 1056 l 278 653 l 92 653 m 417 653 l 367 1056 l 653 1056 l 603 653 l 417 653 z "},"#":{"ha":1143,"x_min":18,"x_max":1121,"o":"m 507 0 l 567 208 l 410 208 l 350 0 l 114 0 l 174 208 l 18 208 l 69 389 l 225 389 l 275 565 l 118 565 l 178 774 l 335 774 l 399 1000 l 635 1000 l 571 774 l 728 774 l 792 1000 l 1028 1000 l 964 774 l 1121 774 l 1061 565 l 904 565 l 854 389 l 1013 389 l 961 208 l 803 208 l 743 0 l 507 0 m 618 389 l 668 565 l 511 565 l 461 389 l 618 389 z "},"$":{"ha":776,"x_min":35,"x_max":756,"o":"m 35 679 q 90 879 35 796 q 258 997 146 963 l 258 1147 l 515 1147 l 515 1015 q 693 972 610 1006 l 679 681 q 438 721 549 721 q 319 664 319 721 q 345 628 319 642 q 440 600 371 615 q 678 501 600 567 q 756 304 756 435 q 695 112 756 192 q 515 0 635 32 l 515 -172 l 258 -172 l 258 -15 q 51 36 169 -7 l 65 293 q 336 244 188 244 q 471 299 471 244 q 443 334 471 321 q 339 364 415 347 q 112 467 189 396 q 35 679 35 539 z "},"%":{"ha":1189,"x_min":14,"x_max":1175,"o":"m 464 947 q 501 910 464 947 q 539 749 539 874 q 465 550 539 624 q 276 476 390 476 q 88 550 163 476 q 14 749 14 624 q 89 947 14 874 q 276 1019 164 1019 q 464 947 389 1019 m 1046 1000 l 368 0 l 146 0 l 824 1000 l 1046 1000 m 275 826 q 214 739 214 826 q 231 673 214 697 q 276 649 247 649 q 339 739 339 649 q 322 803 339 781 q 275 826 304 826 m 1100 451 q 1138 414 1100 451 q 1175 253 1175 378 q 1101 54 1175 128 q 913 -19 1026 -19 q 724 54 799 -19 q 650 253 650 128 q 725 451 650 378 q 913 524 800 524 q 1100 451 1025 524 m 911 331 q 850 243 850 331 q 867 177 850 201 q 913 153 883 153 q 975 243 975 153 q 958 308 975 285 q 911 331 940 331 z "},"&":{"ha":1003,"x_min":21,"x_max":1033,"o":"m 722 0 q 664 51 679 38 q 382 -19 533 -19 q 114 51 207 -19 q 21 250 21 121 q 72 413 21 349 q 218 525 122 476 q 174 694 174 611 q 181 769 174 731 q 285 953 201 886 q 494 1019 369 1019 q 702 948 624 1019 q 781 760 781 876 q 735 602 781 665 q 590 486 689 539 q 572 477 585 483 q 553 468 560 471 q 689 325 600 414 q 894 538 788 413 l 936 292 q 836 183 889 236 q 1033 0 886 136 l 722 0 m 419 697 q 440 622 419 664 q 447 626 443 624 q 454 629 451 628 q 515 667 496 649 q 538 711 535 686 l 538 718 q 522 758 538 743 q 481 772 507 772 q 419 697 419 772 m 406 185 q 497 203 446 185 q 338 363 404 290 q 283 274 283 325 q 285 257 283 263 q 406 185 294 185 z "},"'":{"ha":369,"x_min":42,"x_max":328,"o":"m 92 653 l 42 1056 l 328 1056 l 278 653 l 92 653 z "},"(":{"ha":596,"x_min":56,"x_max":589,"o":"m 589 -236 l 304 -236 q 121 65 186 -108 q 56 438 56 239 q 114 817 56 642 q 283 1111 172 992 l 589 1111 q 400 808 467 983 q 333 438 333 633 q 400 68 333 243 q 589 -236 467 -107 z "},")":{"ha":596,"x_min":7,"x_max":540,"o":"m 7 -236 q 196 68 129 -107 q 263 438 263 243 q 196 808 263 633 q 7 1111 129 983 l 313 1111 q 482 817 424 992 q 540 438 540 642 q 475 65 540 239 q 292 -236 410 -108 l 7 -236 z "},"*":{"ha":626,"x_min":35,"x_max":592,"o":"m 393 471 l 315 590 l 236 469 l 85 579 l 175 692 l 35 729 l 93 907 l 228 856 l 219 1000 l 407 1000 l 400 857 l 535 908 l 592 731 l 453 693 l 544 581 l 393 471 z "},"+":{"ha":750,"x_min":56,"x_max":694,"o":"m 56 374 l 56 596 l 257 596 l 257 818 l 493 818 l 493 596 l 694 596 l 694 374 l 493 374 l 493 151 l 257 151 l 257 374 l 56 374 z "},",":{"ha":408,"x_min":28,"x_max":367,"o":"m 28 -196 l 89 242 l 367 242 q 190 -196 311 42 l 28 -196 z "},"-":{"ha":528,"x_min":56,"x_max":472,"o":"m 56 364 l 56 632 l 472 632 l 472 364 l 56 364 z "},".":{"ha":408,"x_min":42,"x_max":367,"o":"m 319 28 q 295 5 319 28 q 204 -19 271 -19 q 90 28 138 -19 q 42 143 42 76 q 90 257 42 208 q 204 306 138 306 q 319 257 271 306 q 367 143 367 208 q 319 28 367 76 z "},"/":{"ha":706,"x_min":0,"x_max":706,"o":"m 0 -69 l 435 1056 l 706 1056 l 271 -69 l 0 -69 z "},":":{"ha":436,"x_min":56,"x_max":381,"o":"m 333 516 q 309 492 333 516 q 218 468 285 468 q 103 516 151 468 q 56 631 56 564 q 103 744 56 696 q 218 793 151 793 q 333 744 285 793 q 381 631 381 696 q 333 516 381 564 m 333 28 q 309 5 333 28 q 218 -19 285 -19 q 103 28 151 -19 q 56 143 56 76 q 103 257 56 208 q 218 306 151 306 q 333 257 285 306 q 381 143 381 208 q 333 28 381 76 z "},";":{"ha":436,"x_min":38,"x_max":381,"o":"m 333 516 q 309 492 333 516 q 218 468 285 468 q 103 516 151 468 q 56 631 56 564 q 103 744 56 696 q 218 793 151 793 q 333 744 285 793 q 381 631 381 696 q 333 516 381 564 m 38 -196 l 99 242 l 376 242 q 200 -196 321 42 l 38 -196 z "},"<":{"ha":750,"x_min":56,"x_max":694,"o":"m 56 346 l 56 624 l 694 828 l 694 578 l 314 468 l 694 360 l 694 138 l 56 346 z "},"=":{"ha":750,"x_min":56,"x_max":694,"o":"m 694 506 l 56 506 l 56 742 l 694 742 l 694 506 m 694 228 l 56 228 l 56 436 l 694 436 l 694 228 z "},">":{"ha":750,"x_min":56,"x_max":694,"o":"m 694 346 l 56 138 l 56 360 l 436 468 l 56 578 l 56 828 l 694 624 l 694 346 z "},"?":{"ha":740,"x_min":49,"x_max":706,"o":"m 249 353 l 249 575 q 376 601 331 575 q 421 678 421 628 q 381 750 421 724 q 272 776 342 776 q 69 736 161 776 l 49 1028 q 301 1075 156 1075 q 603 986 500 1075 q 706 726 706 897 q 576 453 706 554 q 249 353 446 353 m 456 25 q 433 3 456 25 q 347 -19 411 -19 q 239 25 283 -19 q 194 133 194 69 q 239 241 194 196 q 347 286 283 286 q 456 241 411 286 q 500 133 500 196 q 456 25 500 69 z "},"@":{"ha":1357,"x_min":35,"x_max":1322,"o":"m 943 -129 l 954 -243 q 692 -276 796 -276 q 217 -110 399 -276 q 35 333 35 57 q 223 806 35 619 q 706 992 411 992 q 1153 834 983 992 q 1322 408 1322 676 q 1242 99 1322 217 q 1015 -19 1161 -19 q 893 6 936 -19 q 822 76 850 31 l 817 76 q 734 6 789 31 q 613 -19 679 -19 q 387 73 475 -19 q 299 333 299 165 q 392 603 299 504 q 610 701 485 701 q 799 613 756 701 l 803 613 l 803 682 l 1025 682 l 1025 238 q 1079 107 1025 107 q 1156 188 1125 107 q 1186 410 1186 269 q 1053 736 1186 615 q 706 857 921 857 q 319 714 468 857 q 171 333 171 571 q 315 -26 171 110 q 692 -161 460 -161 q 943 -129 811 -161 m 583 227 q 601 209 583 227 q 669 192 618 192 q 755 227 721 192 q 789 322 789 263 q 755 419 789 381 q 669 457 721 457 q 583 419 617 457 q 549 322 549 381 q 583 227 549 263 z "},"A":{"ha":1060,"x_min":7,"x_max":1053,"o":"m 747 0 l 699 143 l 339 143 l 292 0 l 7 0 l 361 1000 l 694 1000 l 1053 0 l 747 0 m 617 386 l 518 681 l 419 386 l 617 386 z "},"B":{"ha":840,"x_min":69,"x_max":819,"o":"m 69 0 l 69 1000 l 410 1000 q 681 933 590 1000 q 772 744 772 867 q 657 543 772 600 q 819 297 819 489 q 724 81 819 161 q 429 0 629 0 l 69 0 m 406 715 l 340 715 l 340 575 l 407 575 q 488 647 488 575 q 406 715 488 715 m 435 374 l 340 374 l 340 224 l 438 224 q 535 304 535 224 q 435 374 535 374 z "},"C":{"ha":860,"x_min":35,"x_max":804,"o":"m 783 296 l 804 39 q 558 -18 693 -18 q 181 116 328 -18 q 35 499 35 250 q 184 879 35 739 q 564 1019 333 1019 q 803 972 694 1019 l 782 681 q 593 721 703 721 q 393 656 467 721 q 319 481 319 592 q 390 306 319 367 q 589 246 461 246 q 783 296 696 246 z "},"D":{"ha":990,"x_min":69,"x_max":956,"o":"m 69 0 l 69 1000 l 403 1000 q 820 861 685 1000 q 956 497 956 722 q 808 141 956 282 q 386 0 661 0 l 69 0 m 404 715 l 347 715 l 347 257 l 399 257 q 602 319 533 257 q 671 490 671 382 q 602 656 671 596 q 404 715 533 715 z "},"E":{"ha":806,"x_min":69,"x_max":750,"o":"m 69 0 l 69 1000 l 750 1000 l 750 715 l 347 715 l 347 619 l 722 619 l 722 363 l 347 363 l 347 257 l 750 257 l 750 0 l 69 0 z "},"F":{"ha":778,"x_min":69,"x_max":736,"o":"m 69 0 l 69 1000 l 736 1000 l 736 715 l 347 715 l 347 619 l 708 619 l 708 363 l 347 363 l 347 0 l 69 0 z "},"G":{"ha":901,"x_min":35,"x_max":853,"o":"m 853 18 q 610 -18 758 -18 q 554 -17 572 -18 q 178 131 322 -1 q 35 499 35 264 q 191 879 35 739 q 590 1019 347 1019 q 850 967 740 1019 l 836 675 q 624 721 742 721 q 400 656 481 721 q 319 481 319 592 q 528 240 319 279 q 589 233 567 235 l 589 474 l 853 474 l 853 18 z "},"H":{"ha":1042,"x_min":69,"x_max":972,"o":"m 69 0 l 69 1000 l 347 1000 l 347 618 l 694 618 l 694 1000 l 972 1000 l 972 0 l 694 0 l 694 361 l 347 361 l 347 0 l 69 0 z "},"I":{"ha":417,"x_min":69,"x_max":347,"o":"m 69 0 l 69 1000 l 347 1000 l 347 0 l 69 0 z "},"J":{"ha":588,"x_min":14,"x_max":525,"o":"m 14 0 l 35 257 q 125 244 75 244 q 247 368 247 244 l 247 1000 l 525 1000 l 525 382 q 433 74 525 167 q 168 -19 340 -19 q 14 0 81 -19 z "},"K":{"ha":1007,"x_min":69,"x_max":1000,"o":"m 69 0 l 69 1000 l 347 1000 l 347 581 l 622 1000 l 965 1000 l 608 511 l 1000 0 l 654 0 l 347 404 l 347 0 l 69 0 z "},"L":{"ha":743,"x_min":69,"x_max":708,"o":"m 69 0 l 69 1000 l 347 1000 l 347 257 l 708 257 l 708 0 l 69 0 z "},"M":{"ha":1294,"x_min":69,"x_max":1225,"o":"m 526 0 l 326 540 l 326 0 l 69 0 l 69 1000 l 410 1000 l 639 339 l 885 1000 l 1225 1000 l 1225 0 l 961 0 l 961 542 l 749 0 l 526 0 z "},"N":{"ha":1032,"x_min":69,"x_max":963,"o":"m 69 0 l 69 1000 l 347 1000 l 706 424 l 706 1000 l 963 1000 l 963 0 l 685 0 l 326 528 l 326 0 l 69 0 z "},"O":{"ha":1082,"x_min":35,"x_max":1047,"o":"m 35 499 q 176 876 35 732 q 539 1019 318 1019 q 904 876 761 1019 q 1047 499 1047 732 q 907 124 1047 268 q 542 -19 767 -19 q 176 124 317 -19 q 35 499 35 268 m 540 244 q 702 309 642 244 q 763 481 763 374 q 699 656 763 590 q 539 721 636 721 q 381 656 443 721 q 319 481 319 590 q 381 310 319 375 q 540 244 442 244 z "},"P":{"ha":869,"x_min":69,"x_max":842,"o":"m 397 251 l 347 251 l 347 0 l 69 0 l 69 1000 l 388 1000 q 719 908 596 1000 q 842 629 842 815 q 722 347 842 443 q 397 251 603 251 m 411 715 l 347 715 l 347 494 l 411 494 q 557 606 557 494 q 411 715 557 715 z "},"Q":{"ha":1082,"x_min":35,"x_max":1065,"o":"m 803 -283 q 560 -209 649 -283 q 471 -26 471 -135 l 471 -15 q 154 148 274 8 q 35 499 35 288 q 176 876 35 732 q 539 1019 318 1019 q 904 876 761 1019 q 1047 499 1047 732 q 952 179 1047 311 q 696 1 857 47 q 838 -40 740 -40 q 1047 -3 958 -40 l 1065 -243 q 803 -283 951 -283 m 540 244 q 702 309 642 244 q 763 481 763 374 q 699 656 763 590 q 539 721 636 721 q 381 656 443 721 q 319 481 319 590 q 381 310 319 375 q 540 244 442 244 z "},"R":{"ha":908,"x_min":69,"x_max":908,"o":"m 69 0 l 69 1000 l 394 1000 q 713 917 594 1000 q 831 667 831 833 q 783 463 831 542 q 628 338 731 376 l 908 0 l 582 0 l 347 300 l 347 0 l 69 0 m 410 715 l 347 715 l 347 522 l 418 522 q 546 629 546 522 q 410 715 546 715 z "},"S":{"ha":776,"x_min":35,"x_max":756,"o":"m 51 36 l 65 293 q 336 244 188 244 q 471 299 471 244 q 443 334 471 321 q 339 364 415 347 q 112 467 189 396 q 35 679 35 539 q 130 926 35 833 q 419 1019 225 1019 q 693 972 578 1019 l 679 681 q 438 721 549 721 q 319 664 319 721 q 345 628 319 642 q 440 600 371 615 q 678 501 600 567 q 756 304 756 435 q 654 69 756 158 q 354 -19 553 -19 q 228 -11 285 -19 q 138 7 171 -3 q 51 36 106 17 z "},"T":{"ha":775,"x_min":7,"x_max":768,"o":"m 7 715 l 7 1000 l 768 1000 l 768 715 l 526 715 l 526 0 l 249 0 l 249 715 l 7 715 z "},"U":{"ha":978,"x_min":63,"x_max":915,"o":"m 63 425 l 63 1000 l 340 1000 l 340 426 q 489 240 340 240 q 638 428 638 240 l 638 1000 l 915 1000 l 915 425 q 802 103 915 226 q 489 -19 689 -19 q 171 99 279 -19 q 63 425 63 218 z "},"V":{"ha":1065,"x_min":7,"x_max":1058,"o":"m 704 0 l 371 0 l 7 1000 l 333 1000 l 549 260 l 760 1000 l 1058 1000 l 704 0 z "},"W":{"ha":1607,"x_min":10,"x_max":1597,"o":"m 967 0 l 806 594 l 644 0 l 311 0 l 10 1000 l 326 1000 l 496 297 l 665 1000 l 971 1000 l 1136 299 l 1301 1000 l 1597 1000 l 1300 0 l 967 0 z "},"X":{"ha":1074,"x_min":7,"x_max":1067,"o":"m 726 0 l 519 297 l 326 0 l 7 0 l 363 521 l 28 1000 l 375 1000 l 550 747 l 707 1000 l 1033 1000 l 701 528 l 1067 0 l 726 0 z "},"Y":{"ha":1008,"x_min":4,"x_max":1004,"o":"m 647 0 l 369 0 l 369 322 l 4 1000 l 326 1000 l 517 586 l 703 1000 l 1004 1000 l 647 322 l 647 0 z "},"Z":{"ha":853,"x_min":35,"x_max":818,"o":"m 818 0 l 35 0 l 35 229 l 446 715 l 46 715 l 46 1000 l 797 1000 l 797 729 l 397 257 l 818 257 l 818 0 z "},"[":{"ha":567,"x_min":83,"x_max":518,"o":"m 83 -236 l 83 1111 l 518 1111 l 518 826 l 354 826 l 354 -17 l 518 -17 l 518 -236 l 83 -236 z "},"\\":{"ha":678,"x_min":0,"x_max":678,"o":"m 678 -69 l 407 -69 l 0 1056 l 271 1056 l 678 -69 z "},"]":{"ha":567,"x_min":49,"x_max":483,"o":"m 483 -236 l 49 -236 l 49 -17 l 213 -17 l 213 826 l 49 826 l 49 1111 l 483 1111 l 483 -236 z "},"^":{"ha":750,"x_min":56,"x_max":694,"o":"m 464 472 l 375 765 l 286 472 l 56 472 l 235 1000 l 515 1000 l 694 472 l 464 472 z "},"_":{"ha":788,"x_min":28,"x_max":760,"o":"m 28 -268 l 28 -28 l 760 -28 l 760 -268 l 28 -268 z "},"`":{"ha":694,"x_min":44,"x_max":435,"o":"m 261 836 l 44 1103 l 371 1103 l 435 836 l 261 836 z "},"a":{"ha":785,"x_min":21,"x_max":729,"o":"m 458 475 q 339 522 458 522 q 89 464 218 522 l 71 728 q 365 793 196 793 q 640 708 551 793 q 729 453 729 624 l 729 0 l 458 0 l 458 81 q 235 -19 371 -19 q 79 31 138 -19 q 21 174 21 81 q 38 263 21 224 q 82 326 56 301 q 149 369 108 350 q 228 397 190 388 q 315 415 265 407 q 426 440 383 426 q 458 475 458 451 m 458 308 q 389 281 426 290 q 341 265 357 272 q 312 243 325 258 q 299 203 299 228 q 371 147 299 147 q 458 203 431 147 l 458 308 z "},"b":{"ha":931,"x_min":63,"x_max":903,"o":"m 63 0 l 63 1056 l 326 1056 l 326 707 l 332 707 q 417 769 361 746 q 540 793 472 793 q 800 685 697 793 q 903 386 903 578 q 798 88 903 196 q 540 -19 693 -19 q 414 8 471 -19 q 328 88 357 36 l 322 88 l 322 0 l 63 0 m 479 224 q 583 266 542 224 q 625 375 625 308 q 583 481 625 440 q 479 522 542 522 q 374 483 415 522 q 333 374 333 444 q 374 263 333 301 q 479 224 415 224 z "},"c":{"ha":690,"x_min":28,"x_max":649,"o":"m 631 260 l 649 24 q 454 -19 565 -19 q 143 87 258 -19 q 28 386 28 193 q 140 682 28 571 q 443 793 251 793 q 649 754 556 793 l 628 490 q 479 522 561 522 q 351 481 397 522 q 306 367 306 439 q 351 261 306 299 q 475 224 396 224 q 631 260 556 224 z "},"d":{"ha":932,"x_min":28,"x_max":869,"o":"m 869 1056 l 869 0 l 610 0 l 610 67 l 604 67 q 517 4 575 28 q 390 -19 460 -19 q 131 88 233 -19 q 28 388 28 196 q 133 685 28 578 q 390 793 238 793 q 600 686 539 793 l 606 686 l 606 1056 l 869 1056 m 451 522 q 347 481 389 522 q 306 371 306 439 q 347 263 306 301 q 451 224 388 224 q 557 263 515 224 q 599 372 599 301 q 557 483 599 444 q 451 522 515 522 z "},"e":{"ha":806,"x_min":28,"x_max":778,"o":"m 728 11 q 500 -19 636 -19 q 153 84 279 -19 q 28 389 28 188 q 135 679 28 565 q 418 793 243 793 q 683 678 589 793 q 778 389 778 564 q 771 286 778 325 l 325 286 q 404 215 350 235 q 550 196 458 196 q 707 219 632 196 l 728 11 m 424 550 q 310 443 329 550 l 531 443 q 498 519 528 489 q 424 550 468 550 z "},"f":{"ha":594,"x_min":14,"x_max":594,"o":"m 14 524 l 14 774 l 118 774 l 118 788 q 198 995 118 915 q 428 1075 278 1075 q 594 1057 535 1075 l 576 844 q 479 853 542 853 q 403 834 425 853 q 382 776 382 815 l 382 774 l 556 774 l 556 524 l 382 524 l 382 0 l 118 0 l 118 524 l 14 524 z "},"g":{"ha":911,"x_min":28,"x_max":849,"o":"m 589 67 l 589 108 l 583 108 q 381 22 518 22 q 127 119 226 22 q 28 388 28 215 q 130 685 28 578 q 381 793 232 793 q 583 686 522 793 l 589 686 l 589 774 l 849 774 l 849 96 q 742 -188 849 -85 q 438 -292 635 -292 q 235 -274 308 -292 l 253 -58 q 386 -69 306 -69 q 543 -35 497 -69 q 589 67 589 0 m 442 522 q 344 480 383 522 q 306 374 306 438 q 344 269 306 308 q 442 231 382 231 q 540 268 503 231 q 578 374 578 306 q 540 482 578 442 q 442 522 501 522 z "},"h":{"ha":882,"x_min":63,"x_max":826,"o":"m 563 383 q 443 529 563 529 q 356 490 385 529 q 326 385 326 451 l 326 0 l 63 0 l 63 1056 l 322 1056 l 322 700 l 328 700 q 542 793 403 793 q 751 709 675 793 q 826 483 826 625 l 826 0 l 563 0 l 563 383 z "},"i":{"ha":389,"x_min":38,"x_max":350,"o":"m 194 818 q 82 860 126 818 q 38 969 38 901 q 81 1079 38 1038 q 194 1121 125 1121 q 306 1079 263 1121 q 350 969 350 1038 q 306 860 350 901 q 194 818 261 818 m 63 0 l 63 774 l 326 774 l 326 0 l 63 0 z "},"j":{"ha":406,"x_min":-107,"x_max":367,"o":"m 211 818 q 99 860 143 818 q 54 969 54 901 q 98 1079 54 1038 q 211 1121 142 1121 q 323 1079 279 1121 q 367 969 367 1038 q 322 860 367 901 q 211 818 278 818 m 343 29 q 267 -205 343 -118 q 42 -292 190 -292 q -107 -276 -56 -292 l -89 -54 q -19 -62 -53 -62 q 56 -38 32 -62 q 79 40 79 -14 l 79 774 l 343 774 l 343 29 z "},"k":{"ha":847,"x_min":63,"x_max":847,"o":"m 528 0 l 326 311 l 326 0 l 63 0 l 63 1056 l 326 1056 l 326 469 l 506 774 l 818 774 l 574 400 l 847 0 l 528 0 z "},"l":{"ha":389,"x_min":63,"x_max":326,"o":"m 63 0 l 63 1056 l 326 1056 l 326 0 l 63 0 z "},"m":{"ha":1357,"x_min":63,"x_max":1301,"o":"m 326 371 l 326 0 l 63 0 l 63 774 l 322 774 l 322 686 l 328 686 q 539 793 410 793 q 783 643 717 793 q 1028 793 868 793 q 1230 710 1158 793 q 1301 483 1301 626 l 1301 0 l 1038 0 l 1038 369 q 925 515 1038 515 q 814 371 814 515 l 814 0 l 550 0 l 550 369 q 438 515 550 515 q 326 371 326 515 z "},"n":{"ha":882,"x_min":63,"x_max":826,"o":"m 63 0 l 63 774 l 322 774 l 322 686 l 328 686 q 549 793 410 793 q 753 709 679 793 q 826 483 826 625 l 826 0 l 563 0 l 563 369 q 443 515 563 515 q 356 476 385 515 q 326 371 326 438 l 326 0 l 63 0 z "},"o":{"ha":882,"x_min":28,"x_max":854,"o":"m 144 95 q 86 152 144 95 q 28 386 28 210 q 144 678 28 563 q 442 793 260 793 q 739 678 624 793 q 854 386 854 563 q 739 95 854 210 q 442 -19 624 -19 q 144 95 260 -19 m 442 224 q 538 264 499 224 q 576 371 576 304 q 538 479 576 436 q 442 522 500 522 q 344 479 382 522 q 306 371 306 436 q 344 264 306 304 q 442 224 383 224 z "},"p":{"ha":931,"x_min":63,"x_max":903,"o":"m 63 -264 l 63 774 l 322 774 l 322 707 l 328 707 q 414 769 357 746 q 540 793 471 793 q 800 685 697 793 q 903 386 903 578 q 798 88 903 196 q 540 -19 693 -19 q 332 88 393 -19 l 326 88 l 326 -264 l 63 -264 m 479 224 q 583 267 540 224 q 625 375 625 311 q 583 481 625 440 q 479 522 542 522 q 374 483 415 522 q 333 375 333 444 q 375 265 333 307 q 479 224 417 224 z "},"q":{"ha":932,"x_min":28,"x_max":869,"o":"m 869 774 l 869 -264 l 606 -264 l 606 67 l 600 67 q 390 -19 535 -19 q 130 88 232 -19 q 28 388 28 196 q 133 685 28 578 q 390 793 238 793 q 604 686 543 793 l 610 686 l 610 774 l 869 774 m 451 522 q 347 481 388 522 q 306 372 306 439 q 347 263 306 303 q 451 224 388 224 q 558 263 517 224 q 599 372 599 301 q 558 481 599 440 q 451 522 517 522 z "},"r":{"ha":597,"x_min":63,"x_max":583,"o":"m 63 0 l 63 774 l 322 774 l 322 683 l 328 683 q 583 793 383 793 l 565 490 q 379 444 432 497 q 326 254 326 392 l 326 0 l 63 0 z "},"s":{"ha":658,"x_min":28,"x_max":651,"o":"m 35 31 l 53 239 q 304 196 153 196 q 401 225 401 196 q 379 246 401 239 q 264 272 357 253 q 86 351 144 297 q 28 519 28 406 q 117 716 28 639 q 375 793 207 793 q 604 750 508 793 l 586 486 q 368 522 475 522 q 305 516 322 522 q 288 494 288 510 q 307 473 288 479 q 418 451 326 467 q 651 239 651 414 q 311 -19 651 -19 q 35 31 147 -19 z "},"t":{"ha":606,"x_min":7,"x_max":592,"o":"m 119 315 l 119 524 l 7 524 l 7 774 l 140 774 l 168 961 l 383 961 l 383 774 l 574 774 l 574 524 l 383 524 l 383 332 q 406 249 383 274 q 475 224 428 224 q 574 236 524 224 l 592 0 q 425 -19 525 -19 q 188 68 256 -19 q 119 315 119 156 z "},"u":{"ha":869,"x_min":56,"x_max":807,"o":"m 807 774 l 807 0 l 547 0 l 547 81 l 542 81 q 338 -19 464 -19 q 130 65 204 -19 q 56 290 56 149 l 56 774 l 319 774 l 319 369 q 432 224 319 224 q 543 368 543 224 l 543 774 l 807 774 z "},"v":{"ha":876,"x_min":7,"x_max":869,"o":"m 597 0 l 285 0 l 7 774 l 314 774 l 450 253 l 576 774 l 869 774 l 597 0 z "},"w":{"ha":1314,"x_min":3,"x_max":1311,"o":"m 785 0 l 653 463 l 532 0 l 219 0 l 3 774 l 308 774 l 410 276 l 522 774 l 807 774 l 926 274 l 1019 774 l 1311 774 l 1097 0 l 785 0 z "},"x":{"ha":864,"x_min":7,"x_max":857,"o":"m 551 0 l 411 201 l 292 0 l 7 0 l 272 401 l 14 774 l 336 774 l 449 606 l 544 774 l 843 774 l 589 397 l 857 0 l 551 0 z "},"y":{"ha":878,"x_min":1,"x_max":872,"o":"m 254 -283 q 85 -265 157 -283 l 103 -51 q 193 -64 156 -64 q 300 -21 289 -64 l 303 -11 l 1 774 l 318 774 l 449 235 l 576 774 l 872 774 l 590 0 q 542 -108 568 -61 q 476 -197 515 -154 q 381 -261 438 -239 q 254 -283 325 -283 z "},"z":{"ha":690,"x_min":28,"x_max":667,"o":"m 28 0 l 28 201 l 332 524 l 43 524 l 43 774 l 653 774 l 653 538 l 349 229 l 667 229 l 667 0 l 28 0 z "},"{":{"ha":643,"x_min":49,"x_max":560,"o":"m 49 550 q 215 664 215 550 q 200 790 215 714 q 185 906 185 867 q 271 1111 185 1039 l 560 1111 q 469 868 469 1014 q 478 765 469 826 q 488 660 488 704 q 438 512 488 571 q 303 438 389 453 q 434 363 386 422 q 482 215 482 304 q 476 110 482 171 q 469 7 469 49 q 546 -236 469 -154 l 285 -236 q 201 -31 201 -167 q 208 85 201 8 q 215 211 215 161 q 49 325 215 325 l 49 550 z "},"|":{"ha":549,"x_min":139,"x_max":410,"o":"m 410 -264 l 139 -264 l 139 1056 l 410 1056 l 410 -264 z "},"}":{"ha":643,"x_min":83,"x_max":594,"o":"m 340 438 q 205 512 254 453 q 156 660 156 571 q 165 765 156 704 q 174 868 174 826 q 83 1111 174 1014 l 372 1111 q 458 906 458 1039 q 443 790 458 867 q 428 664 428 714 q 594 550 428 550 l 594 325 q 428 211 428 325 q 435 85 428 161 q 442 -31 442 8 q 358 -236 442 -167 l 97 -236 q 174 7 174 -154 q 167 110 174 49 q 161 215 161 171 q 209 363 161 304 q 340 438 257 422 z "},"~":{"ha":750,"x_min":56,"x_max":694,"o":"m 56 342 l 56 564 q 239 624 140 624 q 392 599 301 624 q 526 574 482 574 q 694 628 629 574 l 694 406 q 522 344 631 344 q 371 369 458 344 q 238 394 283 394 q 56 342 131 394 z "}," ":{"ha":292,"x_min":0,"x_max":0,"o":""},"¡":{"ha":494,"x_min":63,"x_max":432,"o":"m 116 740 q 143 766 116 740 q 247 793 169 793 q 378 740 325 793 q 432 608 432 686 q 378 478 432 532 q 247 424 324 424 q 117 478 171 424 q 63 608 63 532 q 116 740 63 686 m 358 375 l 392 -264 l 104 -264 l 138 375 l 358 375 z "},"¢":{"ha":683,"x_min":28,"x_max":649,"o":"m 649 24 q 519 -15 597 -4 l 519 -172 l 276 -172 l 276 8 q 93 145 158 49 q 28 386 28 242 q 93 625 28 525 q 276 767 158 725 l 276 943 l 519 943 l 519 788 q 649 754 599 776 l 628 490 q 479 522 561 522 q 351 481 397 522 q 306 367 306 439 q 351 261 306 299 q 475 224 396 224 q 631 260 556 224 l 649 24 z "},"£":{"ha":843,"x_min":28,"x_max":801,"o":"m 799 257 l 799 0 l 58 0 l 58 257 l 149 257 l 149 408 l 28 408 l 28 568 l 151 568 q 185 747 158 668 q 329 950 231 881 q 571 1019 428 1019 q 801 986 710 1019 l 781 694 q 614 721 707 721 q 449 625 489 721 q 432 568 439 600 l 708 568 l 708 408 l 426 408 l 426 257 l 799 257 z "},"¤":{"ha":883,"x_min":56,"x_max":828,"o":"m 56 228 l 158 331 q 115 489 115 400 q 157 646 115 574 l 56 747 l 196 888 l 313 769 q 440 794 381 794 q 569 769 506 794 l 688 888 l 828 747 l 725 644 q 767 489 767 574 q 724 332 767 401 l 828 228 l 688 88 l 568 207 q 440 183 504 183 q 315 207 379 183 l 196 88 l 56 228 m 440 361 q 515 392 486 361 q 544 469 544 422 q 515 547 544 518 q 440 576 486 576 q 365 547 394 576 q 336 469 336 518 q 366 392 336 422 q 440 361 396 361 z "},"¥":{"ha":1008,"x_min":7,"x_max":1001,"o":"m 913 142 l 647 142 l 647 0 l 369 0 l 369 142 l 107 142 l 107 281 l 369 281 l 369 322 l 354 350 l 107 350 l 107 489 l 281 489 l 7 1000 l 324 1000 l 515 601 l 518 601 l 706 1000 l 1001 1000 l 735 489 l 913 489 l 913 350 l 661 350 l 647 322 l 647 281 l 913 281 l 913 142 z "},"¦":{"ha":549,"x_min":139,"x_max":410,"o":"m 139 486 l 139 1056 l 410 1056 l 410 486 l 139 486 m 139 -264 l 139 306 l 410 306 l 410 -264 l 139 -264 z "},"§":{"ha":693,"x_min":28,"x_max":665,"o":"m 304 -172 q 75 -129 171 -172 l 93 93 q 282 58 192 63 q 311 57 292 57 q 392 99 392 57 q 385 119 392 111 q 348 136 378 126 q 261 156 318 146 q 28 368 28 193 q 33 426 28 403 q 107 557 49 508 q 42 746 42 626 q 51 818 42 788 q 163 965 76 910 q 389 1019 249 1019 q 618 976 522 1019 l 600 713 q 411 747 501 743 q 382 749 401 749 q 301 707 301 749 q 306 690 301 697 q 328 675 310 683 q 381 660 346 667 q 432 650 422 651 q 665 438 665 613 q 664 404 665 415 q 593 256 656 313 q 651 88 651 194 q 647 36 651 61 q 542 -116 629 -60 q 304 -172 454 -172 m 411 336 q 418 340 417 339 q 443 392 443 356 l 443 397 q 357 453 439 431 q 282 469 328 461 q 250 414 250 453 l 250 408 q 288 368 253 383 q 411 336 324 353 z "},"¨":{"ha":694,"x_min":36,"x_max":658,"o":"m 285 865 q 264 844 285 865 q 181 822 243 822 q 77 865 118 822 q 36 971 36 908 q 77 1074 36 1031 q 181 1117 118 1117 q 285 1074 243 1117 q 328 971 328 1031 q 285 865 328 908 m 616 865 q 595 844 616 865 q 511 822 574 822 q 406 865 449 822 q 364 971 364 908 q 406 1074 364 1031 q 511 1117 449 1117 q 616 1074 574 1117 q 658 971 658 1031 q 616 865 658 908 z "},"©":{"ha":1256,"x_min":35,"x_max":1221,"o":"m 1056 928 q 1138 844 1056 928 q 1221 499 1221 760 q 1056 70 1221 238 q 626 -97 890 -97 q 199 70 364 -97 q 35 499 35 238 q 199 928 35 760 q 626 1097 363 1097 q 1056 928 890 1097 m 168 490 q 296 156 168 288 q 626 25 424 25 q 965 154 842 25 q 1088 490 1088 283 q 959 823 1088 692 q 626 954 831 954 q 296 823 424 954 q 168 490 168 692 m 819 350 l 835 172 q 665 135 758 135 q 405 226 506 135 q 304 490 304 318 q 407 753 304 656 q 668 850 510 850 q 835 817 760 850 l 819 615 q 689 644 763 644 q 551 600 601 644 q 500 478 500 556 q 549 358 500 400 q 686 317 597 317 q 819 350 764 317 z "},"ª":{"ha":538,"x_min":35,"x_max":496,"o":"m 319 813 q 242 843 319 843 q 79 806 161 843 l 68 976 q 258 1019 147 1019 q 438 965 381 1019 q 496 799 496 910 l 496 504 l 319 504 l 319 556 q 174 492 263 492 q 73 524 111 492 q 35 617 35 556 q 86 725 35 692 q 226 774 138 758 q 299 790 276 783 q 319 813 319 797 m 319 704 q 275 686 301 693 q 243 676 253 681 q 224 662 233 672 q 215 636 215 651 q 263 600 215 600 q 319 636 301 600 l 319 704 z "},"«":{"ha":903,"x_min":28,"x_max":868,"o":"m 221 42 l 28 389 l 193 736 l 485 736 l 319 389 l 485 42 l 221 42 m 604 42 l 411 389 l 576 736 l 868 736 l 703 389 l 868 42 l 604 42 z "},"¬":{"ha":750,"x_min":56,"x_max":694,"o":"m 56 374 l 56 596 l 694 596 l 694 151 l 458 151 l 458 374 l 56 374 z "},"­":{"ha":0,"x_min":0,"x_max":0,"o":""},"®":{"ha":779,"x_min":28,"x_max":751,"o":"m 751 706 q 649 439 751 543 q 389 335 546 335 q 131 440 233 335 q 28 706 28 544 q 131 971 28 867 q 389 1075 233 1075 q 649 971 546 1075 q 751 706 751 867 m 192 903 q 153 863 192 903 q 114 700 114 824 q 192 496 114 576 q 389 415 271 415 q 587 495 508 415 q 665 700 665 575 q 587 903 665 824 q 389 982 508 982 q 192 903 271 982 m 439 503 l 350 622 l 350 503 l 239 503 l 239 903 l 369 903 q 496 869 449 903 q 543 769 543 836 q 467 639 543 671 l 579 503 l 439 503 m 375 789 l 350 789 l 350 706 l 379 706 q 429 751 429 706 q 375 789 429 789 z "},"¯":{"ha":694,"x_min":104,"x_max":590,"o":"m 104 874 l 104 1061 l 590 1061 l 590 874 l 104 874 z "},"°":{"ha":519,"x_min":14,"x_max":506,"o":"m 436 602 q 401 568 436 602 q 260 533 367 533 q 83 602 153 533 q 14 776 14 671 q 83 951 14 883 q 260 1019 153 1019 q 436 951 367 1019 q 506 776 506 883 q 436 602 506 671 m 260 688 q 315 710 293 688 q 336 767 336 732 q 315 824 336 801 q 260 846 293 846 q 207 824 228 846 q 186 767 186 801 q 207 710 186 732 q 260 688 228 688 z "},"±":{"ha":750,"x_min":56,"x_max":694,"o":"m 56 443 l 56 665 l 257 665 l 257 874 l 493 874 l 493 665 l 694 665 l 694 443 l 493 443 l 493 249 l 257 249 l 257 443 l 56 443 m 694 0 l 56 0 l 56 208 l 694 208 l 694 0 z "},"²":{"ha":521,"x_min":51,"x_max":472,"o":"m 60 458 l 60 589 q 215 708 169 667 q 260 781 260 749 q 194 835 260 835 q 61 803 131 835 l 51 983 q 242 1019 131 1019 q 410 973 354 1019 q 465 843 465 926 q 307 603 465 714 l 472 603 l 472 458 l 60 458 z "},"³":{"ha":521,"x_min":65,"x_max":478,"o":"m 65 475 l 75 614 q 210 593 129 593 q 278 635 278 593 q 208 672 278 672 l 161 672 l 161 779 l 197 779 q 267 815 267 779 q 210 851 267 851 q 81 825 138 851 l 71 992 q 257 1021 153 1021 q 412 981 357 1021 q 467 868 467 942 q 411 756 467 794 q 478 626 478 721 q 411 498 478 544 q 239 451 344 451 q 65 475 139 451 z "},"´":{"ha":694,"x_min":261,"x_max":651,"o":"m 435 836 l 261 836 l 325 1103 l 651 1103 l 435 836 z "},"¶":{"ha":854,"x_min":28,"x_max":785,"o":"m 354 -264 l 354 390 q 117 476 206 392 q 28 693 28 560 q 117 915 28 829 q 354 1000 207 1000 l 535 1000 l 535 -264 l 354 -264 m 604 -264 l 604 1000 l 785 1000 l 785 -264 l 604 -264 z "},"·":{"ha":694,"x_min":192,"x_max":504,"o":"m 349 374 q 236 415 281 374 q 192 525 192 457 q 235 635 192 593 q 349 676 279 676 q 460 635 417 676 q 504 525 504 593 q 460 415 504 457 q 349 374 415 374 z "},"¸":{"ha":694,"x_min":204,"x_max":567,"o":"m 222 -211 q 301 -225 261 -225 q 364 -186 364 -225 q 343 -151 364 -162 q 272 -135 322 -140 l 314 18 l 414 18 l 408 -61 q 567 -210 567 -75 q 517 -326 567 -282 q 356 -371 467 -371 q 204 -350 257 -371 l 222 -211 z "},"¹":{"ha":521,"x_min":25,"x_max":414,"o":"m 138 714 l 25 853 q 186 1000 124 928 l 414 1000 l 414 458 l 219 458 l 219 775 q 138 714 196 751 z "},"º":{"ha":579,"x_min":21,"x_max":558,"o":"m 21 754 q 97 944 21 869 q 290 1019 172 1019 q 483 944 408 1019 q 558 754 558 869 q 483 566 558 640 q 290 492 408 492 q 97 566 172 492 q 21 754 21 640 m 290 649 q 352 675 326 649 q 378 744 378 701 q 353 815 378 788 q 290 843 328 843 q 226 815 251 843 q 201 744 201 788 q 227 675 201 701 q 290 649 253 649 z "},"»":{"ha":903,"x_min":35,"x_max":875,"o":"m 299 42 l 35 42 l 200 389 l 35 736 l 326 736 l 492 389 l 299 42 m 682 42 l 418 42 l 583 389 l 418 736 l 710 736 l 875 389 l 682 42 z "},"¼":{"ha":1219,"x_min":25,"x_max":1204,"o":"m 138 714 l 25 853 q 186 1000 124 928 l 414 1000 l 414 458 l 219 458 l 219 775 q 138 714 196 751 m 188 0 l 865 1000 l 1088 1000 l 410 0 l 188 0 m 708 99 l 708 215 l 935 542 l 1139 542 l 1139 231 l 1204 231 l 1204 99 l 1139 99 l 1139 0 l 963 0 l 963 99 l 708 99 m 853 231 l 963 231 l 963 393 l 853 231 z "},"½":{"ha":1219,"x_min":25,"x_max":1171,"o":"m 138 714 l 25 853 q 186 1000 124 928 l 414 1000 l 414 458 l 219 458 l 219 775 q 138 714 196 751 m 146 0 l 824 1000 l 1046 1000 l 368 0 l 146 0 m 758 0 l 758 131 q 913 249 868 208 q 958 322 958 290 q 893 376 958 376 q 760 344 829 376 l 750 525 q 940 561 829 561 q 1108 515 1053 561 q 1164 385 1164 468 q 1006 144 1164 256 l 1171 144 l 1171 0 l 758 0 z "},"¾":{"ha":1219,"x_min":65,"x_max":1204,"o":"m 65 475 l 75 614 q 210 593 129 593 q 278 635 278 593 q 208 672 278 672 l 161 672 l 161 779 l 197 779 q 267 815 267 779 q 210 851 267 851 q 81 825 138 851 l 71 992 q 257 1021 153 1021 q 412 981 357 1021 q 467 868 467 942 q 411 756 467 794 q 478 626 478 721 q 411 498 478 544 q 239 451 344 451 q 65 475 139 451 m 188 0 l 865 1000 l 1088 1000 l 410 0 l 188 0 m 708 99 l 708 215 l 935 542 l 1139 542 l 1139 231 l 1204 231 l 1204 99 l 1139 99 l 1139 0 l 963 0 l 963 99 l 708 99 m 853 231 l 963 231 l 963 393 l 853 231 z "},"¿":{"ha":726,"x_min":35,"x_max":692,"o":"m 276 740 q 303 766 276 740 q 407 793 331 793 q 538 740 483 793 q 592 608 592 686 q 538 478 592 532 q 407 424 483 424 q 276 478 331 424 q 222 608 222 532 q 276 740 222 686 m 492 375 l 492 136 q 365 110 410 136 q 319 33 319 83 q 360 -33 319 -8 q 468 -57 400 -57 q 671 -17 579 -57 l 692 -236 q 442 -283 585 -283 q 139 -199 243 -283 q 35 36 35 -115 q 164 284 35 193 q 492 375 293 375 z "},"À":{"ha":1060,"x_min":7,"x_max":1053,"o":"m 444 1063 l 228 1329 l 554 1329 l 618 1063 l 444 1063 m 747 0 l 699 143 l 339 143 l 292 0 l 7 0 l 361 1000 l 694 1000 l 1053 0 l 747 0 m 617 386 l 518 681 l 419 386 l 617 386 z "},"Á":{"ha":1060,"x_min":7,"x_max":1053,"o":"m 618 1063 l 444 1063 l 508 1329 l 835 1329 l 618 1063 m 747 0 l 699 143 l 339 143 l 292 0 l 7 0 l 361 1000 l 694 1000 l 1053 0 l 747 0 m 617 386 l 518 681 l 419 386 l 617 386 z "},"Â":{"ha":1060,"x_min":7,"x_max":1053,"o":"m 649 1063 l 531 1156 l 413 1063 l 253 1063 l 400 1329 l 661 1329 l 808 1063 l 649 1063 m 747 0 l 699 143 l 339 143 l 292 0 l 7 0 l 361 1000 l 694 1000 l 1053 0 l 747 0 m 617 386 l 518 681 l 419 386 l 617 386 z "},"Ã":{"ha":1060,"x_min":7,"x_max":1053,"o":"m 303 1060 l 285 1261 q 331 1294 314 1283 q 376 1314 347 1304 q 433 1324 404 1324 q 544 1301 478 1324 q 643 1279 610 1279 q 758 1332 708 1279 l 776 1131 q 644 1071 719 1071 q 529 1093 596 1071 q 428 1115 463 1115 q 377 1106 401 1115 q 341 1088 353 1096 q 303 1060 329 1079 m 747 0 l 699 143 l 339 143 l 292 0 l 7 0 l 361 1000 l 694 1000 l 1053 0 l 747 0 m 617 386 l 518 681 l 419 386 l 617 386 z "},"Ä":{"ha":1060,"x_min":7,"x_max":1053,"o":"m 469 1092 q 448 1070 469 1092 q 364 1049 426 1049 q 260 1092 301 1049 q 219 1197 219 1135 q 260 1300 219 1257 q 364 1343 301 1343 q 469 1300 426 1343 q 511 1197 511 1257 q 469 1092 511 1135 m 799 1092 q 778 1070 799 1092 q 694 1049 757 1049 q 590 1092 632 1049 q 547 1197 547 1135 q 590 1300 547 1257 q 694 1343 632 1343 q 799 1300 757 1343 q 842 1197 842 1257 q 799 1092 842 1135 m 747 0 l 699 143 l 339 143 l 292 0 l 7 0 l 361 1000 l 694 1000 l 1053 0 l 747 0 m 617 386 l 518 681 l 419 386 l 617 386 z "},"Å":{"ha":1060,"x_min":7,"x_max":1053,"o":"m 331 1253 q 390 1392 331 1333 q 531 1450 449 1450 q 673 1392 614 1450 q 732 1253 732 1333 q 673 1111 732 1169 q 531 1053 614 1053 q 390 1111 449 1053 q 331 1253 331 1169 m 490 1205 q 498 1196 490 1205 q 531 1188 507 1188 q 572 1205 554 1188 q 590 1246 590 1222 q 572 1288 590 1271 q 531 1306 554 1306 q 490 1288 507 1306 q 472 1246 472 1271 q 490 1205 472 1222 m 747 0 l 699 143 l 339 143 l 292 0 l 7 0 l 361 1000 l 694 1000 l 1053 0 l 747 0 m 617 386 l 518 681 l 419 386 l 617 386 z "},"Æ":{"ha":1393,"x_min":7,"x_max":1338,"o":"m 657 0 l 657 143 l 367 143 l 292 0 l 7 0 l 535 1000 l 1338 1000 l 1338 715 l 935 715 l 935 619 l 1310 619 l 1310 363 l 935 363 l 935 257 l 1338 257 l 1338 0 l 657 0 m 657 386 l 657 701 l 493 386 l 657 386 z "},"Ç":{"ha":860,"x_min":35,"x_max":804,"o":"m 496 -371 q 344 -350 397 -371 l 363 -211 q 442 -225 401 -225 q 504 -186 504 -225 q 483 -151 504 -162 q 413 -135 463 -140 l 447 -10 q 147 152 260 22 q 35 499 35 282 q 184 879 35 739 q 564 1019 333 1019 q 803 972 694 1019 l 782 681 q 593 721 703 721 q 393 656 467 721 q 319 481 319 592 q 390 306 319 367 q 589 246 461 246 q 783 296 696 246 l 804 39 q 558 -18 693 -18 l 551 -18 l 549 -61 q 707 -210 707 -75 q 657 -326 707 -282 q 496 -371 607 -371 z "},"È":{"ha":806,"x_min":69,"x_max":750,"o":"m 343 1063 l 126 1329 l 453 1329 l 517 1063 l 343 1063 m 69 0 l 69 1000 l 750 1000 l 750 715 l 347 715 l 347 619 l 722 619 l 722 363 l 347 363 l 347 257 l 750 257 l 750 0 l 69 0 z "},"É":{"ha":806,"x_min":69,"x_max":750,"o":"m 490 1063 l 317 1063 l 381 1329 l 707 1329 l 490 1063 m 69 0 l 69 1000 l 750 1000 l 750 715 l 347 715 l 347 619 l 722 619 l 722 363 l 347 363 l 347 257 l 750 257 l 750 0 l 69 0 z "},"Ê":{"ha":806,"x_min":69,"x_max":750,"o":"m 521 1063 l 403 1156 l 285 1063 l 125 1063 l 272 1329 l 533 1329 l 681 1063 l 521 1063 m 69 0 l 69 1000 l 750 1000 l 750 715 l 347 715 l 347 619 l 722 619 l 722 363 l 347 363 l 347 257 l 750 257 l 750 0 l 69 0 z "},"Ë":{"ha":806,"x_min":69,"x_max":750,"o":"m 341 1092 q 320 1070 341 1092 q 236 1049 299 1049 q 133 1092 174 1049 q 92 1197 92 1135 q 133 1300 92 1257 q 236 1343 174 1343 q 341 1300 299 1343 q 383 1197 383 1257 q 341 1092 383 1135 m 672 1092 q 650 1070 672 1092 q 567 1049 629 1049 q 462 1092 504 1049 q 419 1197 419 1135 q 462 1300 419 1257 q 567 1343 504 1343 q 672 1300 629 1343 q 714 1197 714 1257 q 672 1092 714 1135 m 69 0 l 69 1000 l 750 1000 l 750 715 l 347 715 l 347 619 l 722 619 l 722 363 l 347 363 l 347 257 l 750 257 l 750 0 l 69 0 z "},"Ì":{"ha":417,"x_min":-94,"x_max":347,"o":"m 122 1063 l -94 1329 l 232 1329 l 296 1063 l 122 1063 m 69 0 l 69 1000 l 347 1000 l 347 0 l 69 0 z "},"Í":{"ha":417,"x_min":69,"x_max":513,"o":"m 296 1063 l 122 1063 l 186 1329 l 513 1329 l 296 1063 m 69 0 l 69 1000 l 347 1000 l 347 0 l 69 0 z "},"Î":{"ha":417,"x_min":-69,"x_max":486,"o":"m 326 1063 l 208 1156 l 90 1063 l -69 1063 l 78 1329 l 339 1329 l 486 1063 l 326 1063 m 69 0 l 69 1000 l 347 1000 l 347 0 l 69 0 z "},"Ï":{"ha":417,"x_min":-103,"x_max":519,"o":"m 147 1092 q 125 1070 147 1092 q 42 1049 104 1049 q -62 1092 -21 1049 q -103 1197 -103 1135 q -62 1300 -103 1257 q 42 1343 -21 1343 q 147 1300 104 1343 q 189 1197 189 1257 q 147 1092 189 1135 m 477 1092 q 456 1070 477 1092 q 372 1049 435 1049 q 267 1092 310 1049 q 225 1197 225 1135 q 267 1300 225 1257 q 372 1343 310 1343 q 477 1300 435 1343 q 519 1197 519 1257 q 477 1092 519 1135 m 69 0 l 69 1000 l 347 1000 l 347 0 l 69 0 z "},"Ð":{"ha":1018,"x_min":7,"x_max":983,"o":"m 414 0 l 97 0 l 97 375 l 7 375 l 7 597 l 97 597 l 97 1000 l 431 1000 q 848 861 713 1000 q 983 497 983 722 q 836 141 983 282 q 414 0 689 0 m 375 257 l 426 257 q 630 319 561 257 q 699 490 699 382 q 630 656 699 596 q 432 715 561 715 l 375 715 l 375 597 l 535 597 l 535 375 l 375 375 l 375 257 z "},"Ñ":{"ha":1032,"x_min":69,"x_max":963,"o":"m 289 1060 l 271 1261 q 317 1294 300 1283 q 362 1314 333 1304 q 419 1324 390 1324 q 530 1301 464 1324 q 629 1279 596 1279 q 744 1332 694 1279 l 763 1131 q 631 1071 706 1071 q 515 1093 582 1071 q 414 1115 449 1115 q 363 1106 388 1115 q 327 1088 339 1096 q 289 1060 315 1079 m 69 0 l 69 1000 l 347 1000 l 706 424 l 706 1000 l 963 1000 l 963 0 l 685 0 l 326 528 l 326 0 l 69 0 z "},"Ò":{"ha":1082,"x_min":35,"x_max":1047,"o":"m 456 1063 l 239 1329 l 565 1329 l 629 1063 l 456 1063 m 35 499 q 176 876 35 732 q 539 1019 318 1019 q 904 876 761 1019 q 1047 499 1047 732 q 907 124 1047 268 q 542 -19 767 -19 q 176 124 317 -19 q 35 499 35 268 m 540 244 q 702 309 642 244 q 763 481 763 374 q 699 656 763 590 q 539 721 636 721 q 381 656 443 721 q 319 481 319 590 q 381 310 319 375 q 540 244 442 244 z "},"Ó":{"ha":1082,"x_min":35,"x_max":1047,"o":"m 629 1063 l 456 1063 l 519 1329 l 846 1329 l 629 1063 m 35 499 q 176 876 35 732 q 539 1019 318 1019 q 904 876 761 1019 q 1047 499 1047 732 q 907 124 1047 268 q 542 -19 767 -19 q 176 124 317 -19 q 35 499 35 268 m 540 244 q 702 309 642 244 q 763 481 763 374 q 699 656 763 590 q 539 721 636 721 q 381 656 443 721 q 319 481 319 590 q 381 310 319 375 q 540 244 442 244 z "},"Ô":{"ha":1082,"x_min":35,"x_max":1047,"o":"m 660 1063 l 542 1156 l 424 1063 l 264 1063 l 411 1329 l 672 1329 l 819 1063 l 660 1063 m 35 499 q 176 876 35 732 q 539 1019 318 1019 q 904 876 761 1019 q 1047 499 1047 732 q 907 124 1047 268 q 542 -19 767 -19 q 176 124 317 -19 q 35 499 35 268 m 540 244 q 702 309 642 244 q 763 481 763 374 q 699 656 763 590 q 539 721 636 721 q 381 656 443 721 q 319 481 319 590 q 381 310 319 375 q 540 244 442 244 z "},"Õ":{"ha":1082,"x_min":35,"x_max":1047,"o":"m 314 1060 l 296 1261 q 342 1294 325 1283 q 387 1314 358 1304 q 444 1324 415 1324 q 555 1301 489 1324 q 654 1279 621 1279 q 769 1332 719 1279 l 788 1131 q 656 1071 731 1071 q 540 1093 607 1071 q 439 1115 474 1115 q 388 1106 413 1115 q 352 1088 364 1096 q 314 1060 340 1079 m 35 499 q 176 876 35 732 q 539 1019 318 1019 q 904 876 761 1019 q 1047 499 1047 732 q 907 124 1047 268 q 542 -19 767 -19 q 176 124 317 -19 q 35 499 35 268 m 540 244 q 702 309 642 244 q 763 481 763 374 q 699 656 763 590 q 539 721 636 721 q 381 656 443 721 q 319 481 319 590 q 381 310 319 375 q 540 244 442 244 z "},"Ö":{"ha":1082,"x_min":35,"x_max":1047,"o":"m 480 1092 q 459 1070 480 1092 q 375 1049 438 1049 q 272 1092 313 1049 q 231 1197 231 1135 q 272 1300 231 1257 q 375 1343 313 1343 q 480 1300 438 1343 q 522 1197 522 1257 q 480 1092 522 1135 m 810 1092 q 789 1070 810 1092 q 706 1049 768 1049 q 601 1092 643 1049 q 558 1197 558 1135 q 601 1300 558 1257 q 706 1343 643 1343 q 810 1300 768 1343 q 853 1197 853 1257 q 810 1092 853 1135 m 35 499 q 176 876 35 732 q 539 1019 318 1019 q 904 876 761 1019 q 1047 499 1047 732 q 907 124 1047 268 q 542 -19 767 -19 q 176 124 317 -19 q 35 499 35 268 m 540 244 q 702 309 642 244 q 763 481 763 374 q 699 656 763 590 q 539 721 636 721 q 381 656 443 721 q 319 481 319 590 q 381 310 319 375 q 540 244 442 244 z "},"×":{"ha":750,"x_min":49,"x_max":701,"o":"m 549 151 l 375 325 l 201 151 l 49 304 l 222 478 l 49 651 l 201 804 l 375 631 l 549 804 l 701 651 l 528 478 l 701 304 l 549 151 z "},"Ø":{"ha":1082,"x_min":14,"x_max":1082,"o":"m 542 -19 q 286 40 399 -19 l 253 0 l 14 0 l 146 158 q 35 499 35 296 q 176 876 35 732 q 539 1019 318 1019 q 804 953 686 1019 l 843 1000 l 1082 1000 l 942 832 q 1047 499 1047 693 q 907 124 1047 268 q 542 -19 767 -19 m 319 481 q 335 386 319 432 l 604 713 q 539 721 572 721 q 381 656 443 721 q 319 481 319 590 m 540 244 q 702 309 642 244 q 763 481 763 374 q 742 590 763 542 l 465 256 q 540 244 501 244 z "},"Ù":{"ha":978,"x_min":63,"x_max":915,"o":"m 403 1063 l 186 1329 l 513 1329 l 576 1063 l 403 1063 m 63 425 l 63 1000 l 340 1000 l 340 426 q 489 240 340 240 q 638 428 638 240 l 638 1000 l 915 1000 l 915 425 q 802 103 915 226 q 489 -19 689 -19 q 171 99 279 -19 q 63 425 63 218 z "},"Ú":{"ha":978,"x_min":63,"x_max":915,"o":"m 576 1063 l 403 1063 l 467 1329 l 793 1329 l 576 1063 m 63 425 l 63 1000 l 340 1000 l 340 426 q 489 240 340 240 q 638 428 638 240 l 638 1000 l 915 1000 l 915 425 q 802 103 915 226 q 489 -19 689 -19 q 171 99 279 -19 q 63 425 63 218 z "},"Û":{"ha":978,"x_min":63,"x_max":915,"o":"m 607 1063 l 489 1156 l 371 1063 l 211 1063 l 358 1329 l 619 1329 l 767 1063 l 607 1063 m 63 425 l 63 1000 l 340 1000 l 340 426 q 489 240 340 240 q 638 428 638 240 l 638 1000 l 915 1000 l 915 425 q 802 103 915 226 q 489 -19 689 -19 q 171 99 279 -19 q 63 425 63 218 z "},"Ü":{"ha":978,"x_min":63,"x_max":915,"o":"m 427 1092 q 406 1070 427 1092 q 322 1049 385 1049 q 219 1092 260 1049 q 178 1197 178 1135 q 219 1300 178 1257 q 322 1343 260 1343 q 427 1300 385 1343 q 469 1197 469 1257 q 427 1092 469 1135 m 758 1092 q 736 1070 758 1092 q 653 1049 715 1049 q 548 1092 590 1049 q 506 1197 506 1135 q 548 1300 506 1257 q 653 1343 590 1343 q 758 1300 715 1343 q 800 1197 800 1257 q 758 1092 800 1135 m 63 425 l 63 1000 l 340 1000 l 340 426 q 489 240 340 240 q 638 428 638 240 l 638 1000 l 915 1000 l 915 425 q 802 103 915 226 q 489 -19 689 -19 q 171 99 279 -19 q 63 425 63 218 z "},"Ý":{"ha":1008,"x_min":4,"x_max":1004,"o":"m 592 1063 l 418 1063 l 482 1329 l 808 1329 l 592 1063 m 647 0 l 369 0 l 369 322 l 4 1000 l 326 1000 l 517 586 l 703 1000 l 1004 1000 l 647 322 l 647 0 z "},"Þ":{"ha":869,"x_min":69,"x_max":842,"o":"m 397 126 l 347 126 l 347 0 l 69 0 l 69 1000 l 347 1000 l 347 875 l 388 875 q 719 783 596 875 q 842 504 842 690 q 722 222 842 318 q 397 126 603 126 m 411 590 l 347 590 l 347 369 l 411 369 q 557 481 557 369 q 411 590 557 590 z "},"ß":{"ha":928,"x_min":63,"x_max":900,"o":"m 63 0 l 63 686 q 454 1075 63 1075 q 728 998 624 1075 q 833 775 833 921 q 800 643 833 701 q 714 560 767 585 q 900 308 900 485 q 806 62 900 143 q 546 -19 713 -19 q 378 0 440 -19 l 396 222 q 494 210 439 210 q 629 315 629 210 q 594 392 629 365 q 500 419 560 419 l 433 419 l 433 607 l 465 607 q 563 706 563 607 q 533 781 563 751 q 443 811 503 811 q 352 773 378 811 q 326 665 326 735 l 326 0 l 63 0 z "},"à":{"ha":785,"x_min":21,"x_max":729,"o":"m 307 836 l 90 1103 l 417 1103 l 481 836 l 307 836 m 458 475 q 339 522 458 522 q 89 464 218 522 l 71 728 q 365 793 196 793 q 640 708 551 793 q 729 453 729 624 l 729 0 l 458 0 l 458 81 q 235 -19 371 -19 q 79 31 138 -19 q 21 174 21 81 q 38 263 21 224 q 82 326 56 301 q 149 369 108 350 q 228 397 190 388 q 315 415 265 407 q 426 440 383 426 q 458 475 458 451 m 458 308 q 389 281 426 290 q 341 265 357 272 q 312 243 325 258 q 299 203 299 228 q 371 147 299 147 q 458 203 431 147 l 458 308 z "},"á":{"ha":785,"x_min":21,"x_max":729,"o":"m 481 836 l 307 836 l 371 1103 l 697 1103 l 481 836 m 458 475 q 339 522 458 522 q 89 464 218 522 l 71 728 q 365 793 196 793 q 640 708 551 793 q 729 453 729 624 l 729 0 l 458 0 l 458 81 q 235 -19 371 -19 q 79 31 138 -19 q 21 174 21 81 q 38 263 21 224 q 82 326 56 301 q 149 369 108 350 q 228 397 190 388 q 315 415 265 407 q 426 440 383 426 q 458 475 458 451 m 458 308 q 389 281 426 290 q 341 265 357 272 q 312 243 325 258 q 299 203 299 228 q 371 147 299 147 q 458 203 431 147 l 458 308 z "},"â":{"ha":785,"x_min":21,"x_max":729,"o":"m 511 836 l 393 929 l 275 836 l 115 836 l 263 1103 l 524 1103 l 671 836 l 511 836 m 458 475 q 339 522 458 522 q 89 464 218 522 l 71 728 q 365 793 196 793 q 640 708 551 793 q 729 453 729 624 l 729 0 l 458 0 l 458 81 q 235 -19 371 -19 q 79 31 138 -19 q 21 174 21 81 q 38 263 21 224 q 82 326 56 301 q 149 369 108 350 q 228 397 190 388 q 315 415 265 407 q 426 440 383 426 q 458 475 458 451 m 458 308 q 389 281 426 290 q 341 265 357 272 q 312 243 325 258 q 299 203 299 228 q 371 147 299 147 q 458 203 431 147 l 458 308 z "},"ã":{"ha":785,"x_min":21,"x_max":729,"o":"m 165 833 l 147 1035 q 193 1067 176 1057 q 238 1088 210 1078 q 296 1097 267 1097 q 406 1075 340 1097 q 506 1053 472 1053 q 621 1106 571 1053 l 639 904 q 507 844 582 844 q 392 867 458 844 q 290 889 325 889 q 240 879 264 889 q 203 861 215 869 q 165 833 192 853 m 458 475 q 339 522 458 522 q 89 464 218 522 l 71 728 q 365 793 196 793 q 640 708 551 793 q 729 453 729 624 l 729 0 l 458 0 l 458 81 q 235 -19 371 -19 q 79 31 138 -19 q 21 174 21 81 q 38 263 21 224 q 82 326 56 301 q 149 369 108 350 q 228 397 190 388 q 315 415 265 407 q 426 440 383 426 q 458 475 458 451 m 458 308 q 389 281 426 290 q 341 265 357 272 q 312 243 325 258 q 299 203 299 228 q 371 147 299 147 q 458 203 431 147 l 458 308 z "},"ä":{"ha":785,"x_min":21,"x_max":729,"o":"m 331 865 q 310 844 331 865 q 226 822 289 822 q 123 865 164 822 q 82 971 82 908 q 123 1074 82 1031 q 226 1117 164 1117 q 331 1074 289 1117 q 374 971 374 1031 q 331 865 374 908 m 662 865 q 641 844 662 865 q 557 822 619 822 q 452 865 494 822 q 410 971 410 908 q 452 1074 410 1031 q 557 1117 494 1117 q 662 1074 619 1117 q 704 971 704 1031 q 662 865 704 908 m 458 475 q 339 522 458 522 q 89 464 218 522 l 71 728 q 365 793 196 793 q 640 708 551 793 q 729 453 729 624 l 729 0 l 458 0 l 458 81 q 235 -19 371 -19 q 79 31 138 -19 q 21 174 21 81 q 38 263 21 224 q 82 326 56 301 q 149 369 108 350 q 228 397 190 388 q 315 415 265 407 q 426 440 383 426 q 458 475 458 451 m 458 308 q 389 281 426 290 q 341 265 357 272 q 312 243 325 258 q 299 203 299 228 q 371 147 299 147 q 458 203 431 147 l 458 308 z "},"å":{"ha":785,"x_min":21,"x_max":729,"o":"m 193 1026 q 252 1165 193 1107 q 393 1224 311 1224 q 535 1165 476 1224 q 594 1026 594 1107 q 535 885 594 943 q 393 826 476 826 q 252 885 311 826 q 193 1026 193 943 m 352 978 q 361 970 352 978 q 393 961 369 961 q 435 978 417 961 q 453 1019 453 996 q 435 1062 453 1044 q 393 1079 417 1079 q 352 1062 369 1079 q 335 1019 335 1044 q 352 978 335 996 m 458 475 q 339 522 458 522 q 89 464 218 522 l 71 728 q 365 793 196 793 q 640 708 551 793 q 729 453 729 624 l 729 0 l 458 0 l 458 81 q 235 -19 371 -19 q 79 31 138 -19 q 21 174 21 81 q 38 263 21 224 q 82 326 56 301 q 149 369 108 350 q 228 397 190 388 q 315 415 265 407 q 426 440 383 426 q 458 475 458 451 m 458 308 q 389 281 426 290 q 341 265 357 272 q 312 243 325 258 q 299 203 299 228 q 371 147 299 147 q 458 203 431 147 l 458 308 z "},"æ":{"ha":1203,"x_min":21,"x_max":1175,"o":"m 897 -19 q 568 88 683 -19 q 254 -19 449 -19 q 85 31 149 -19 q 21 174 21 81 q 38 263 21 224 q 82 326 56 301 q 149 369 108 350 q 228 397 190 388 q 315 415 265 407 q 426 440 383 426 q 458 475 458 451 q 439 506 458 493 q 339 522 410 522 q 304 521 317 522 q 89 464 200 514 l 71 728 q 329 792 179 786 q 365 793 340 793 q 611 732 522 793 q 815 793 700 793 q 851 792 840 793 q 1081 678 997 779 q 1174 424 1165 576 q 1175 389 1175 413 q 1168 286 1175 325 l 722 286 q 801 215 747 235 q 947 196 856 196 q 1104 219 1029 196 l 1125 11 q 897 -19 1033 -19 m 821 550 q 707 443 726 550 l 928 443 q 895 519 925 489 q 821 550 865 550 m 371 147 q 496 185 439 147 q 463 285 472 232 q 460 297 461 289 q 458 307 458 304 q 389 281 419 289 q 341 265 357 272 q 312 243 325 258 q 299 203 299 228 q 371 147 299 147 z "},"ç":{"ha":690,"x_min":28,"x_max":649,"o":"m 372 -371 q 221 -350 274 -371 l 239 -211 q 318 -225 278 -225 q 381 -186 381 -225 q 360 -151 381 -162 q 289 -135 339 -140 l 324 -6 q 106 127 185 26 q 28 386 28 228 q 140 682 28 571 q 443 793 251 793 q 649 754 556 793 l 628 490 q 479 522 561 522 q 351 481 397 522 q 306 367 306 439 q 351 261 306 299 q 475 224 396 224 q 631 260 556 224 l 649 24 q 454 -19 565 -19 l 428 -19 l 425 -61 q 583 -210 583 -75 q 533 -326 583 -282 q 372 -371 483 -371 z "},"è":{"ha":806,"x_min":28,"x_max":778,"o":"m 324 836 l 107 1103 l 433 1103 l 497 836 l 324 836 m 728 11 q 500 -19 636 -19 q 153 84 279 -19 q 28 389 28 188 q 135 679 28 565 q 418 793 243 793 q 683 678 589 793 q 778 389 778 564 q 771 286 778 325 l 325 286 q 404 215 350 235 q 550 196 458 196 q 707 219 632 196 l 728 11 m 424 550 q 310 443 329 550 l 531 443 q 498 519 528 489 q 424 550 468 550 z "},"é":{"ha":806,"x_min":28,"x_max":778,"o":"m 490 836 l 317 836 l 381 1103 l 707 1103 l 490 836 m 728 11 q 500 -19 636 -19 q 153 84 279 -19 q 28 389 28 188 q 135 679 28 565 q 418 793 243 793 q 683 678 589 793 q 778 389 778 564 q 771 286 778 325 l 325 286 q 404 215 350 235 q 550 196 458 196 q 707 219 632 196 l 728 11 m 424 550 q 310 443 329 550 l 531 443 q 498 519 528 489 q 424 550 468 550 z "},"ê":{"ha":806,"x_min":28,"x_max":778,"o":"m 521 836 l 403 929 l 285 836 l 125 836 l 272 1103 l 533 1103 l 681 836 l 521 836 m 728 11 q 500 -19 636 -19 q 153 84 279 -19 q 28 389 28 188 q 135 679 28 565 q 418 793 243 793 q 683 678 589 793 q 778 389 778 564 q 771 286 778 325 l 325 286 q 404 215 350 235 q 550 196 458 196 q 707 219 632 196 l 728 11 m 424 550 q 310 443 329 550 l 531 443 q 498 519 528 489 q 424 550 468 550 z "},"ë":{"ha":806,"x_min":28,"x_max":778,"o":"m 341 865 q 320 844 341 865 q 236 822 299 822 q 133 865 174 822 q 92 971 92 908 q 133 1074 92 1031 q 236 1117 174 1117 q 341 1074 299 1117 q 383 971 383 1031 q 341 865 383 908 m 672 865 q 650 844 672 865 q 567 822 629 822 q 462 865 504 822 q 419 971 419 908 q 462 1074 419 1031 q 567 1117 504 1117 q 672 1074 629 1117 q 714 971 714 1031 q 672 865 714 908 m 728 11 q 500 -19 636 -19 q 153 84 279 -19 q 28 389 28 188 q 135 679 28 565 q 418 793 243 793 q 683 678 589 793 q 778 389 778 564 q 771 286 778 325 l 325 286 q 404 215 350 235 q 550 196 458 196 q 707 219 632 196 l 728 11 m 424 550 q 310 443 329 550 l 531 443 q 498 519 528 489 q 424 550 468 550 z "},"ì":{"ha":389,"x_min":-108,"x_max":326,"o":"m 108 836 l -108 1103 l 218 1103 l 282 836 l 108 836 m 63 0 l 63 774 l 326 774 l 326 0 l 63 0 z "},"í":{"ha":389,"x_min":63,"x_max":499,"o":"m 282 836 l 108 836 l 172 1103 l 499 1103 l 282 836 m 63 0 l 63 774 l 326 774 l 326 0 l 63 0 z "},"î":{"ha":389,"x_min":-83,"x_max":472,"o":"m 313 836 l 194 929 l 76 836 l -83 836 l 64 1103 l 325 1103 l 472 836 l 313 836 m 63 0 l 63 774 l 326 774 l 326 0 l 63 0 z "},"ï":{"ha":389,"x_min":-117,"x_max":506,"o":"m 133 865 q 111 844 133 865 q 28 822 90 822 q -76 865 -35 822 q -117 971 -117 908 q -76 1074 -117 1031 q 28 1117 -35 1117 q 133 1074 90 1117 q 175 971 175 1031 q 133 865 175 908 m 463 865 q 442 844 463 865 q 358 822 421 822 q 253 865 296 822 q 211 971 211 908 q 253 1074 211 1031 q 358 1117 296 1117 q 463 1074 421 1117 q 506 971 506 1031 q 463 865 506 908 m 63 0 l 63 774 l 326 774 l 326 0 l 63 0 z "},"ð":{"ha":882,"x_min":58,"x_max":836,"o":"m 447 -19 q 165 83 271 -19 q 58 344 58 185 q 167 601 58 500 q 446 703 276 703 q 531 693 479 703 q 407 814 482 761 l 344 733 l 267 793 l 322 864 q 219 906 269 890 l 290 1075 q 449 1029 369 1063 l 510 1108 l 589 1049 l 539 985 q 760 756 685 897 q 836 461 836 614 q 733 110 836 240 q 447 -19 631 -19 m 454 207 q 539 243 504 207 q 574 340 574 279 q 540 428 574 393 q 454 464 506 464 q 367 428 401 464 q 332 340 332 393 q 367 243 332 279 q 454 207 403 207 z "},"ñ":{"ha":882,"x_min":63,"x_max":826,"o":"m 214 833 l 196 1035 q 242 1067 225 1057 q 287 1088 258 1078 q 344 1097 315 1097 q 455 1075 389 1097 q 554 1053 521 1053 q 669 1106 619 1053 l 688 904 q 556 844 631 844 q 440 867 507 844 q 339 889 374 889 q 288 879 313 889 q 252 861 264 869 q 214 833 240 853 m 63 0 l 63 774 l 322 774 l 322 686 l 328 686 q 549 793 410 793 q 753 709 679 793 q 826 483 826 625 l 826 0 l 563 0 l 563 369 q 443 515 563 515 q 356 476 385 515 q 326 371 326 438 l 326 0 l 63 0 z "},"ò":{"ha":882,"x_min":28,"x_max":854,"o":"m 356 836 l 139 1103 l 465 1103 l 529 836 l 356 836 m 144 95 q 86 152 144 95 q 28 386 28 210 q 144 678 28 563 q 442 793 260 793 q 739 678 624 793 q 854 386 854 563 q 739 95 854 210 q 442 -19 624 -19 q 144 95 260 -19 m 442 224 q 538 264 499 224 q 576 371 576 304 q 538 479 576 436 q 442 522 500 522 q 344 479 382 522 q 306 371 306 436 q 344 264 306 304 q 442 224 383 224 z "},"ó":{"ha":882,"x_min":28,"x_max":854,"o":"m 529 836 l 356 836 l 419 1103 l 746 1103 l 529 836 m 144 95 q 86 152 144 95 q 28 386 28 210 q 144 678 28 563 q 442 793 260 793 q 739 678 624 793 q 854 386 854 563 q 739 95 854 210 q 442 -19 624 -19 q 144 95 260 -19 m 442 224 q 538 264 499 224 q 576 371 576 304 q 538 479 576 436 q 442 522 500 522 q 344 479 382 522 q 306 371 306 436 q 344 264 306 304 q 442 224 383 224 z "},"ô":{"ha":882,"x_min":28,"x_max":854,"o":"m 560 836 l 442 929 l 324 836 l 164 836 l 311 1103 l 572 1103 l 719 836 l 560 836 m 144 95 q 86 152 144 95 q 28 386 28 210 q 144 678 28 563 q 442 793 260 793 q 739 678 624 793 q 854 386 854 563 q 739 95 854 210 q 442 -19 624 -19 q 144 95 260 -19 m 442 224 q 538 264 499 224 q 576 371 576 304 q 538 479 576 436 q 442 522 500 522 q 344 479 382 522 q 306 371 306 436 q 344 264 306 304 q 442 224 383 224 z "},"õ":{"ha":882,"x_min":28,"x_max":854,"o":"m 214 833 l 196 1035 q 242 1067 225 1057 q 287 1088 258 1078 q 344 1097 315 1097 q 455 1075 389 1097 q 554 1053 521 1053 q 669 1106 619 1053 l 688 904 q 556 844 631 844 q 440 867 507 844 q 339 889 374 889 q 288 879 313 889 q 252 861 264 869 q 214 833 240 853 m 144 95 q 86 152 144 95 q 28 386 28 210 q 144 678 28 563 q 442 793 260 793 q 739 678 624 793 q 854 386 854 563 q 739 95 854 210 q 442 -19 624 -19 q 144 95 260 -19 m 442 224 q 538 264 499 224 q 576 371 576 304 q 538 479 576 436 q 442 522 500 522 q 344 479 382 522 q 306 371 306 436 q 344 264 306 304 q 442 224 383 224 z "},"ö":{"ha":882,"x_min":28,"x_max":854,"o":"m 380 865 q 359 844 380 865 q 275 822 338 822 q 172 865 213 822 q 131 971 131 908 q 172 1074 131 1031 q 275 1117 213 1117 q 380 1074 338 1117 q 422 971 422 1031 q 380 865 422 908 m 710 865 q 689 844 710 865 q 606 822 668 822 q 501 865 543 822 q 458 971 458 908 q 501 1074 458 1031 q 606 1117 543 1117 q 710 1074 668 1117 q 753 971 753 1031 q 710 865 753 908 m 144 95 q 86 152 144 95 q 28 386 28 210 q 144 678 28 563 q 442 793 260 793 q 739 678 624 793 q 854 386 854 563 q 739 95 854 210 q 442 -19 624 -19 q 144 95 260 -19 m 442 224 q 538 264 499 224 q 576 371 576 304 q 538 479 576 436 q 442 522 500 522 q 344 479 382 522 q 306 371 306 436 q 344 264 306 304 q 442 224 383 224 z "},"÷":{"ha":750,"x_min":56,"x_max":694,"o":"m 222 781 q 264 883 222 843 q 368 922 306 922 q 472 883 431 922 q 514 781 514 843 q 472 677 514 717 q 368 638 431 638 q 264 677 306 638 q 222 781 222 717 m 694 374 l 56 374 l 56 596 l 694 596 l 694 374 m 264 88 q 243 107 264 88 q 222 190 222 126 q 264 293 222 254 q 368 332 306 332 q 472 293 431 332 q 514 190 514 254 q 472 88 514 126 q 368 49 431 49 q 264 88 306 49 z "},"ø":{"ha":882,"x_min":0,"x_max":896,"o":"m 442 -19 q 215 39 315 -19 l 179 0 l 0 0 l 117 125 q 28 386 28 233 q 144 678 28 563 q 442 793 260 793 q 675 729 571 793 l 717 774 l 896 774 l 772 640 q 854 386 854 535 q 739 95 854 210 q 442 -19 624 -19 m 306 371 q 310 333 306 353 l 479 517 q 442 522 463 522 q 344 479 382 522 q 306 371 306 436 m 442 224 q 538 264 499 224 q 576 371 576 304 q 569 421 576 396 l 394 232 q 442 224 415 224 z "},"ù":{"ha":869,"x_min":56,"x_max":807,"o":"m 349 836 l 132 1103 l 458 1103 l 522 836 l 349 836 m 807 774 l 807 0 l 547 0 l 547 81 l 542 81 q 338 -19 464 -19 q 130 65 204 -19 q 56 290 56 149 l 56 774 l 319 774 l 319 369 q 432 224 319 224 q 543 368 543 224 l 543 774 l 807 774 z "},"ú":{"ha":869,"x_min":56,"x_max":807,"o":"m 522 836 l 349 836 l 413 1103 l 739 1103 l 522 836 m 807 774 l 807 0 l 547 0 l 547 81 l 542 81 q 338 -19 464 -19 q 130 65 204 -19 q 56 290 56 149 l 56 774 l 319 774 l 319 369 q 432 224 319 224 q 543 368 543 224 l 543 774 l 807 774 z "},"û":{"ha":869,"x_min":56,"x_max":807,"o":"m 553 836 l 435 929 l 317 836 l 157 836 l 304 1103 l 565 1103 l 713 836 l 553 836 m 807 774 l 807 0 l 547 0 l 547 81 l 542 81 q 338 -19 464 -19 q 130 65 204 -19 q 56 290 56 149 l 56 774 l 319 774 l 319 369 q 432 224 319 224 q 543 368 543 224 l 543 774 l 807 774 z "},"ü":{"ha":869,"x_min":56,"x_max":807,"o":"m 373 865 q 352 844 373 865 q 268 822 331 822 q 165 865 206 822 q 124 971 124 908 q 165 1074 124 1031 q 268 1117 206 1117 q 373 1074 331 1117 q 415 971 415 1031 q 373 865 415 908 m 703 865 q 682 844 703 865 q 599 822 661 822 q 494 865 536 822 q 451 971 451 908 q 494 1074 451 1031 q 599 1117 536 1117 q 703 1074 661 1117 q 746 971 746 1031 q 703 865 746 908 m 807 774 l 807 0 l 547 0 l 547 81 l 542 81 q 338 -19 464 -19 q 130 65 204 -19 q 56 290 56 149 l 56 774 l 319 774 l 319 369 q 432 224 319 224 q 543 368 543 224 l 543 774 l 807 774 z "},"ý":{"ha":878,"x_min":1,"x_max":872,"o":"m 526 836 l 353 836 l 417 1103 l 743 1103 l 526 836 m 254 -283 q 85 -265 157 -283 l 103 -51 q 193 -64 156 -64 q 300 -21 289 -64 l 303 -11 l 1 774 l 318 774 l 449 235 l 576 774 l 872 774 l 590 0 q 542 -108 568 -61 q 476 -197 515 -154 q 381 -261 438 -239 q 254 -283 325 -283 z "},"þ":{"ha":938,"x_min":69,"x_max":910,"o":"m 69 -264 l 69 1056 l 333 1056 l 333 707 l 339 707 q 424 769 368 746 q 547 793 479 793 q 807 685 704 793 q 910 386 910 578 q 805 88 910 196 q 547 -19 700 -19 q 421 8 478 -19 q 335 88 364 36 l 329 88 l 329 -264 l 69 -264 m 486 224 q 590 267 547 224 q 632 375 632 311 q 590 481 632 440 q 486 522 549 522 q 381 483 422 522 q 340 375 340 444 q 382 265 340 307 q 486 224 424 224 z "},"ÿ":{"ha":878,"x_min":1,"x_max":872,"o":"m 377 865 q 356 844 377 865 q 272 822 335 822 q 169 865 210 822 q 128 971 128 908 q 169 1074 128 1031 q 272 1117 210 1117 q 377 1074 335 1117 q 419 971 419 1031 q 377 865 419 908 m 708 865 q 686 844 708 865 q 603 822 665 822 q 498 865 540 822 q 456 971 456 908 q 498 1074 456 1031 q 603 1117 540 1117 q 708 1074 665 1117 q 750 971 750 1031 q 708 865 750 908 m 254 -283 q 85 -265 157 -283 l 103 -51 q 193 -64 156 -64 q 300 -21 289 -64 l 303 -11 l 1 774 l 318 774 l 449 235 l 576 774 l 872 774 l 590 0 q 542 -108 568 -61 q 476 -197 515 -154 q 381 -261 438 -239 q 254 -283 325 -283 z "},"Ā":{"ha":1060,"x_min":7,"x_max":1053,"o":"m 288 1100 l 288 1288 l 774 1288 l 774 1100 l 288 1100 m 747 0 l 699 143 l 339 143 l 292 0 l 7 0 l 361 1000 l 694 1000 l 1053 0 l 747 0 m 617 386 l 518 681 l 419 386 l 617 386 z "},"ā":{"ha":785,"x_min":21,"x_max":729,"o":"m 150 874 l 150 1061 l 636 1061 l 636 874 l 150 874 m 458 475 q 339 522 458 522 q 89 464 218 522 l 71 728 q 365 793 196 793 q 640 708 551 793 q 729 453 729 624 l 729 0 l 458 0 l 458 81 q 235 -19 371 -19 q 79 31 138 -19 q 21 174 21 81 q 38 263 21 224 q 82 326 56 301 q 149 369 108 350 q 228 397 190 388 q 315 415 265 407 q 426 440 383 426 q 458 475 458 451 m 458 308 q 389 281 426 290 q 341 265 357 272 q 312 243 325 258 q 299 203 299 228 q 371 147 299 147 q 458 203 431 147 l 458 308 z "},"Ă":{"ha":1060,"x_min":7,"x_max":1053,"o":"m 260 1310 l 458 1310 q 478 1253 458 1274 q 531 1232 499 1232 q 581 1253 561 1232 q 601 1310 601 1274 l 800 1310 q 731 1126 800 1193 q 531 1060 663 1060 q 330 1128 400 1060 q 260 1310 260 1197 m 747 0 l 699 143 l 339 143 l 292 0 l 7 0 l 361 1000 l 694 1000 l 1053 0 l 747 0 m 617 386 l 518 681 l 419 386 l 617 386 z "},"ă":{"ha":785,"x_min":21,"x_max":729,"o":"m 122 1083 l 321 1083 q 341 1026 321 1047 q 393 1006 361 1006 q 444 1026 424 1006 q 464 1083 464 1047 l 663 1083 q 594 900 663 967 q 393 833 525 833 q 192 902 263 833 q 122 1083 122 971 m 458 475 q 339 522 458 522 q 89 464 218 522 l 71 728 q 365 793 196 793 q 640 708 551 793 q 729 453 729 624 l 729 0 l 458 0 l 458 81 q 235 -19 371 -19 q 79 31 138 -19 q 21 174 21 81 q 38 263 21 224 q 82 326 56 301 q 149 369 108 350 q 228 397 190 388 q 315 415 265 407 q 426 440 383 426 q 458 475 458 451 m 458 308 q 389 281 426 290 q 341 265 357 272 q 312 243 325 258 q 299 203 299 228 q 371 147 299 147 q 458 203 431 147 l 458 308 z "},"Ą":{"ha":1060,"x_min":7,"x_max":1053,"o":"m 747 0 l 699 143 l 339 143 l 292 0 l 7 0 l 361 1000 l 694 1000 l 1053 0 q 878 -48 939 -7 q 818 -135 818 -89 q 874 -183 818 -183 q 979 -154 929 -183 l 997 -324 q 811 -371 915 -371 q 660 -324 707 -371 q 614 -204 614 -278 q 747 0 614 -78 m 617 386 l 518 681 l 419 386 l 617 386 z "},"ą":{"ha":785,"x_min":21,"x_max":729,"o":"m 458 0 l 458 81 q 235 -19 371 -19 q 79 31 138 -19 q 21 174 21 81 q 38 263 21 224 q 82 326 56 301 q 149 369 108 350 q 228 397 190 388 q 315 415 265 407 q 426 440 383 426 q 458 475 458 451 q 339 522 458 522 q 89 464 218 522 l 71 728 q 365 793 196 793 q 640 708 551 793 q 729 453 729 624 l 729 0 q 589 -44 639 -4 q 539 -126 539 -83 q 599 -183 539 -183 q 700 -154 653 -183 l 718 -324 q 532 -371 636 -371 q 381 -324 428 -371 q 335 -204 335 -278 q 458 0 335 -83 m 458 308 q 389 281 426 290 q 341 265 357 272 q 312 243 325 258 q 299 203 299 228 q 371 147 299 147 q 458 203 431 147 l 458 308 z "},"Ć":{"ha":860,"x_min":35,"x_max":804,"o":"m 571 1063 l 397 1063 l 461 1329 l 788 1329 l 571 1063 m 783 296 l 804 39 q 558 -18 693 -18 q 181 116 328 -18 q 35 499 35 250 q 184 879 35 739 q 564 1019 333 1019 q 803 972 694 1019 l 782 681 q 593 721 703 721 q 393 656 467 721 q 319 481 319 592 q 390 306 319 367 q 589 246 461 246 q 783 296 696 246 z "},"ć":{"ha":690,"x_min":28,"x_max":690,"o":"m 474 836 l 300 836 l 364 1103 l 690 1103 l 474 836 m 631 260 l 649 24 q 454 -19 565 -19 q 143 87 258 -19 q 28 386 28 193 q 140 682 28 571 q 443 793 251 793 q 649 754 556 793 l 628 490 q 479 522 561 522 q 351 481 397 522 q 306 367 306 439 q 351 261 306 299 q 475 224 396 224 q 631 260 556 224 z "},"Ĉ":{"ha":860,"x_min":35,"x_max":804,"o":"m 592 1063 l 474 1156 l 356 1063 l 196 1063 l 343 1329 l 604 1329 l 751 1063 l 592 1063 m 783 296 l 804 39 q 558 -18 693 -18 q 181 116 328 -18 q 35 499 35 250 q 184 879 35 739 q 564 1019 333 1019 q 803 972 694 1019 l 782 681 q 593 721 703 721 q 393 656 467 721 q 319 481 319 592 q 390 306 319 367 q 589 246 461 246 q 783 296 696 246 z "},"ĉ":{"ha":690,"x_min":28,"x_max":649,"o":"m 488 836 l 369 929 l 251 836 l 92 836 l 239 1103 l 500 1103 l 647 836 l 488 836 m 631 260 l 649 24 q 454 -19 565 -19 q 143 87 258 -19 q 28 386 28 193 q 140 682 28 571 q 443 793 251 793 q 649 754 556 793 l 628 490 q 479 522 561 522 q 351 481 397 522 q 306 367 306 439 q 351 261 306 299 q 475 224 396 224 q 631 260 556 224 z "},"Ċ":{"ha":860,"x_min":35,"x_max":804,"o":"m 475 1051 q 363 1093 407 1051 q 318 1203 318 1135 q 362 1313 318 1271 q 475 1354 406 1354 q 587 1313 543 1354 q 631 1203 631 1271 q 586 1093 631 1135 q 475 1051 542 1051 m 783 296 l 804 39 q 558 -18 693 -18 q 181 116 328 -18 q 35 499 35 250 q 184 879 35 739 q 564 1019 333 1019 q 803 972 694 1019 l 782 681 q 593 721 703 721 q 393 656 467 721 q 319 481 319 592 q 390 306 319 367 q 589 246 461 246 q 783 296 696 246 z "},"ċ":{"ha":690,"x_min":28,"x_max":649,"o":"m 399 825 q 286 867 331 825 q 242 976 242 908 q 285 1086 242 1044 q 399 1128 329 1128 q 510 1086 467 1128 q 554 976 554 1044 q 510 867 554 908 q 399 825 465 825 m 631 260 l 649 24 q 454 -19 565 -19 q 143 87 258 -19 q 28 386 28 193 q 140 682 28 571 q 443 793 251 793 q 649 754 556 793 l 628 490 q 479 522 561 522 q 351 481 397 522 q 306 367 306 439 q 351 261 306 299 q 475 224 396 224 q 631 260 556 224 z "},"Č":{"ha":860,"x_min":35,"x_max":804,"o":"m 619 1063 l 358 1063 l 211 1329 l 371 1329 l 489 1236 l 607 1329 l 767 1329 l 619 1063 m 783 296 l 804 39 q 558 -18 693 -18 q 181 116 328 -18 q 35 499 35 250 q 184 879 35 739 q 564 1019 333 1019 q 803 972 694 1019 l 782 681 q 593 721 703 721 q 393 656 467 721 q 319 481 319 592 q 390 306 319 367 q 589 246 461 246 q 783 296 696 246 z "},"č":{"ha":690,"x_min":28,"x_max":653,"o":"m 506 836 l 244 836 l 97 1103 l 257 1103 l 375 1010 l 493 1103 l 653 1103 l 506 836 m 631 260 l 649 24 q 454 -19 565 -19 q 143 87 258 -19 q 28 386 28 193 q 140 682 28 571 q 443 793 251 793 q 649 754 556 793 l 628 490 q 479 522 561 522 q 351 481 397 522 q 306 367 306 439 q 351 261 306 299 q 475 224 396 224 q 631 260 556 224 z "},"Ď":{"ha":990,"x_min":69,"x_max":956,"o":"m 626 1063 l 365 1063 l 218 1329 l 378 1329 l 496 1236 l 614 1329 l 774 1329 l 626 1063 m 69 0 l 69 1000 l 403 1000 q 820 861 685 1000 q 956 497 956 722 q 808 141 956 282 q 386 0 661 0 l 69 0 m 404 715 l 347 715 l 347 257 l 399 257 q 602 319 533 257 q 671 490 671 382 q 602 656 671 596 q 404 715 533 715 z "},"ď":{"ha":1133,"x_min":28,"x_max":1154,"o":"m 869 1056 l 869 0 l 610 0 l 610 67 l 604 67 q 517 4 575 28 q 390 -19 460 -19 q 131 88 233 -19 q 28 388 28 196 q 133 685 28 578 q 390 793 238 793 q 600 686 539 793 l 606 686 l 606 1056 l 869 1056 m 914 743 l 933 1056 l 1154 1056 l 1075 743 l 914 743 m 451 522 q 347 481 389 522 q 306 371 306 439 q 347 263 306 301 q 451 224 388 224 q 557 263 515 224 q 599 372 599 301 q 557 483 599 444 q 451 522 515 522 z "},"Đ":{"ha":1018,"x_min":7,"x_max":983,"o":"m 414 0 l 97 0 l 97 375 l 7 375 l 7 597 l 97 597 l 97 1000 l 431 1000 q 848 861 713 1000 q 983 497 983 722 q 836 141 983 282 q 414 0 689 0 m 375 257 l 426 257 q 630 319 561 257 q 699 490 699 382 q 630 656 699 596 q 432 715 561 715 l 375 715 l 375 597 l 535 597 l 535 375 l 375 375 l 375 257 z "},"đ":{"ha":946,"x_min":28,"x_max":967,"o":"m 604 67 q 517 4 575 28 q 390 -19 460 -19 q 131 88 233 -19 q 28 388 28 196 q 133 685 28 578 q 390 793 238 793 q 600 686 539 793 l 606 686 l 606 846 l 349 846 l 349 985 l 606 985 l 606 1056 l 869 1056 l 869 985 l 967 985 l 967 846 l 869 846 l 869 0 l 610 0 l 610 67 l 604 67 m 451 522 q 347 481 389 522 q 306 371 306 439 q 347 263 306 301 q 451 224 388 224 q 557 263 515 224 q 599 372 599 301 q 557 483 599 444 q 451 522 515 522 z "},"Ē":{"ha":806,"x_min":69,"x_max":750,"o":"m 160 1100 l 160 1288 l 646 1288 l 646 1100 l 160 1100 m 69 0 l 69 1000 l 750 1000 l 750 715 l 347 715 l 347 619 l 722 619 l 722 363 l 347 363 l 347 257 l 750 257 l 750 0 l 69 0 z "},"ē":{"ha":806,"x_min":28,"x_max":778,"o":"m 160 874 l 160 1061 l 646 1061 l 646 874 l 160 874 m 728 11 q 500 -19 636 -19 q 153 84 279 -19 q 28 389 28 188 q 135 679 28 565 q 418 793 243 793 q 683 678 589 793 q 778 389 778 564 q 771 286 778 325 l 325 286 q 404 215 350 235 q 550 196 458 196 q 707 219 632 196 l 728 11 m 424 550 q 310 443 329 550 l 531 443 q 498 519 528 489 q 424 550 468 550 z "},"Ĕ":{"ha":806,"x_min":69,"x_max":750,"o":"m 143 1310 l 342 1310 q 362 1253 342 1274 q 414 1232 382 1232 q 465 1253 444 1232 q 485 1310 485 1274 l 683 1310 q 615 1126 683 1193 q 414 1060 546 1060 q 213 1128 283 1060 q 143 1310 143 1197 m 69 0 l 69 1000 l 750 1000 l 750 715 l 347 715 l 347 619 l 722 619 l 722 363 l 347 363 l 347 257 l 750 257 l 750 0 l 69 0 z "},"ĕ":{"ha":806,"x_min":28,"x_max":778,"o":"m 132 1083 l 331 1083 q 351 1026 331 1047 q 403 1006 371 1006 q 453 1026 433 1006 q 474 1083 474 1047 l 672 1083 q 603 900 672 967 q 403 833 535 833 q 202 902 272 833 q 132 1083 132 971 m 728 11 q 500 -19 636 -19 q 153 84 279 -19 q 28 389 28 188 q 135 679 28 565 q 418 793 243 793 q 683 678 589 793 q 778 389 778 564 q 771 286 778 325 l 325 286 q 404 215 350 235 q 550 196 458 196 q 707 219 632 196 l 728 11 m 424 550 q 310 443 329 550 l 531 443 q 498 519 528 489 q 424 550 468 550 z "},"Ė":{"ha":806,"x_min":69,"x_max":750,"o":"m 404 1051 q 292 1093 336 1051 q 247 1203 247 1135 q 291 1313 247 1271 q 404 1354 335 1354 q 516 1313 472 1354 q 560 1203 560 1271 q 515 1093 560 1135 q 404 1051 471 1051 m 69 0 l 69 1000 l 750 1000 l 750 715 l 347 715 l 347 619 l 722 619 l 722 363 l 347 363 l 347 257 l 750 257 l 750 0 l 69 0 z "},"ė":{"ha":806,"x_min":28,"x_max":778,"o":"m 404 825 q 292 867 336 825 q 247 976 247 908 q 291 1086 247 1044 q 404 1128 335 1128 q 516 1086 472 1128 q 560 976 560 1044 q 515 867 560 908 q 404 825 471 825 m 728 11 q 500 -19 636 -19 q 153 84 279 -19 q 28 389 28 188 q 135 679 28 565 q 418 793 243 793 q 683 678 589 793 q 778 389 778 564 q 771 286 778 325 l 325 286 q 404 215 350 235 q 550 196 458 196 q 707 219 632 196 l 728 11 m 424 550 q 310 443 329 550 l 531 443 q 498 519 528 489 q 424 550 468 550 z "},"Ę":{"ha":806,"x_min":69,"x_max":767,"o":"m 517 0 l 69 0 l 69 1000 l 750 1000 l 750 715 l 347 715 l 347 619 l 722 619 l 722 363 l 347 363 l 347 257 l 750 257 l 750 0 q 633 -51 679 -8 q 588 -135 588 -93 q 643 -183 588 -183 q 749 -154 699 -183 l 767 -324 q 581 -371 685 -371 q 430 -324 476 -371 q 383 -204 383 -278 q 517 0 383 -81 z "},"ę":{"ha":806,"x_min":28,"x_max":778,"o":"m 740 -324 q 554 -371 658 -371 q 403 -324 450 -371 q 357 -204 357 -278 q 465 -18 357 -101 q 426 -15 451 -18 q 133 103 238 1 q 28 389 28 206 q 135 679 28 565 q 418 793 243 793 q 673 690 579 793 q 776 426 767 588 q 778 389 778 414 q 771 286 778 325 l 325 286 q 472 200 361 213 q 550 196 508 196 q 707 219 632 196 l 728 11 q 608 -51 654 -12 q 561 -135 561 -90 q 617 -183 561 -183 q 646 -182 638 -183 q 722 -154 682 -176 l 740 -324 m 424 550 q 310 443 329 550 l 531 443 q 498 519 528 489 q 424 550 468 550 z "},"Ě":{"ha":806,"x_min":69,"x_max":750,"o":"m 533 1063 l 272 1063 l 125 1329 l 285 1329 l 403 1236 l 521 1329 l 681 1329 l 533 1063 m 69 0 l 69 1000 l 750 1000 l 750 715 l 347 715 l 347 619 l 722 619 l 722 363 l 347 363 l 347 257 l 750 257 l 750 0 l 69 0 z "},"ě":{"ha":806,"x_min":28,"x_max":778,"o":"m 533 836 l 272 836 l 125 1103 l 285 1103 l 403 1010 l 521 1103 l 681 1103 l 533 836 m 728 11 q 500 -19 636 -19 q 153 84 279 -19 q 28 389 28 188 q 135 679 28 565 q 418 793 243 793 q 683 678 589 793 q 778 389 778 564 q 771 286 778 325 l 325 286 q 404 215 350 235 q 550 196 458 196 q 707 219 632 196 l 728 11 m 424 550 q 310 443 329 550 l 531 443 q 498 519 528 489 q 424 550 468 550 z "},"Ĝ":{"ha":901,"x_min":35,"x_max":853,"o":"m 618 1063 l 500 1156 l 382 1063 l 222 1063 l 369 1329 l 631 1329 l 778 1063 l 618 1063 m 853 18 q 610 -18 758 -18 q 554 -17 572 -18 q 178 131 322 -1 q 35 499 35 264 q 191 879 35 739 q 590 1019 347 1019 q 850 967 740 1019 l 836 675 q 624 721 742 721 q 400 656 481 721 q 319 481 319 592 q 528 240 319 279 q 589 233 567 235 l 589 474 l 853 474 l 853 18 z "},"ĝ":{"ha":911,"x_min":28,"x_max":849,"o":"m 588 836 l 469 929 l 351 836 l 192 836 l 339 1103 l 600 1103 l 747 836 l 588 836 m 589 67 l 589 108 l 583 108 q 381 22 518 22 q 127 119 226 22 q 28 388 28 215 q 130 685 28 578 q 381 793 232 793 q 583 686 522 793 l 589 686 l 589 774 l 849 774 l 849 96 q 742 -188 849 -85 q 438 -292 635 -292 q 235 -274 308 -292 l 253 -58 q 386 -69 306 -69 q 543 -35 497 -69 q 589 67 589 0 m 442 522 q 344 480 383 522 q 306 374 306 438 q 344 269 306 308 q 442 231 382 231 q 540 268 503 231 q 578 374 578 306 q 540 482 578 442 q 442 522 501 522 z "},"Ğ":{"ha":901,"x_min":35,"x_max":853,"o":"m 242 1310 l 440 1310 q 460 1253 440 1274 q 513 1232 481 1232 q 563 1253 543 1232 q 583 1310 583 1274 l 782 1310 q 713 1126 782 1193 q 513 1060 644 1060 q 312 1128 382 1060 q 242 1310 242 1197 m 853 18 q 610 -18 758 -18 q 554 -17 572 -18 q 178 131 322 -1 q 35 499 35 264 q 191 879 35 739 q 590 1019 347 1019 q 850 967 740 1019 l 836 675 q 624 721 742 721 q 400 656 481 721 q 319 481 319 592 q 528 240 319 279 q 589 233 567 235 l 589 474 l 853 474 l 853 18 z "},"ğ":{"ha":911,"x_min":28,"x_max":849,"o":"m 203 1083 l 401 1083 q 422 1026 401 1047 q 474 1006 442 1006 q 524 1026 504 1006 q 544 1083 544 1047 l 743 1083 q 674 900 743 967 q 474 833 606 833 q 273 902 343 833 q 203 1083 203 971 m 589 67 l 589 108 l 583 108 q 381 22 518 22 q 127 119 226 22 q 28 388 28 215 q 130 685 28 578 q 381 793 232 793 q 583 686 522 793 l 589 686 l 589 774 l 849 774 l 849 96 q 742 -188 849 -85 q 438 -292 635 -292 q 235 -274 308 -292 l 253 -58 q 386 -69 306 -69 q 543 -35 497 -69 q 589 67 589 0 m 442 522 q 344 480 383 522 q 306 374 306 438 q 344 269 306 308 q 442 231 382 231 q 540 268 503 231 q 578 374 578 306 q 540 482 578 442 q 442 522 501 522 z "},"Ġ":{"ha":901,"x_min":35,"x_max":853,"o":"m 532 1051 q 419 1093 464 1051 q 375 1203 375 1135 q 419 1313 375 1271 q 532 1354 463 1354 q 644 1313 600 1354 q 688 1203 688 1271 q 643 1093 688 1135 q 532 1051 599 1051 m 853 18 q 610 -18 758 -18 q 554 -17 572 -18 q 178 131 322 -1 q 35 499 35 264 q 191 879 35 739 q 590 1019 347 1019 q 850 967 740 1019 l 836 675 q 624 721 742 721 q 400 656 481 721 q 319 481 319 592 q 528 240 319 279 q 589 233 567 235 l 589 474 l 853 474 l 853 18 z "},"ġ":{"ha":911,"x_min":28,"x_max":849,"o":"m 488 825 q 375 867 419 825 q 331 976 331 908 q 374 1086 331 1044 q 488 1128 418 1128 q 599 1086 556 1128 q 643 976 643 1044 q 599 867 643 908 q 488 825 554 825 m 589 67 l 589 108 l 583 108 q 381 22 518 22 q 127 119 226 22 q 28 388 28 215 q 130 685 28 578 q 381 793 232 793 q 583 686 522 793 l 589 686 l 589 774 l 849 774 l 849 96 q 742 -188 849 -85 q 438 -292 635 -292 q 235 -274 308 -292 l 253 -58 q 386 -69 306 -69 q 543 -35 497 -69 q 589 67 589 0 m 442 522 q 344 480 383 522 q 306 374 306 438 q 344 269 306 308 q 442 231 382 231 q 540 268 503 231 q 578 374 578 306 q 540 482 578 442 q 442 522 501 522 z "},"Ģ":{"ha":901,"x_min":35,"x_max":853,"o":"m 853 18 q 610 -18 758 -18 q 554 -17 572 -18 q 178 131 322 -1 q 35 499 35 264 q 191 879 35 739 q 590 1019 347 1019 q 850 967 740 1019 l 836 675 q 624 721 742 721 q 400 656 481 721 q 319 481 319 592 q 528 240 319 279 q 589 233 567 235 l 589 474 l 853 474 l 853 18 m 358 -347 l 400 -62 l 692 -62 l 539 -347 l 358 -347 z "},"ģ":{"ha":911,"x_min":28,"x_max":849,"o":"m 640 1103 l 613 836 l 321 836 l 460 1103 l 640 1103 m 589 67 l 589 108 l 583 108 q 381 22 518 22 q 127 119 226 22 q 28 388 28 215 q 130 685 28 578 q 381 793 232 793 q 583 686 522 793 l 589 686 l 589 774 l 849 774 l 849 96 q 742 -188 849 -85 q 438 -292 635 -292 q 235 -274 308 -292 l 253 -58 q 386 -69 306 -69 q 543 -35 497 -69 q 589 67 589 0 m 442 522 q 344 480 383 522 q 306 374 306 438 q 344 269 306 308 q 442 231 382 231 q 540 268 503 231 q 578 374 578 306 q 540 482 578 442 q 442 522 501 522 z "},"Ĥ":{"ha":1042,"x_min":69,"x_max":972,"o":"m 639 1063 l 521 1156 l 403 1063 l 243 1063 l 390 1329 l 651 1329 l 799 1063 l 639 1063 m 69 0 l 69 1000 l 347 1000 l 347 618 l 694 618 l 694 1000 l 972 1000 l 972 0 l 694 0 l 694 361 l 347 361 l 347 0 l 69 0 z "},"ĥ":{"ha":882,"x_min":63,"x_max":826,"o":"m 458 1100 l 340 1193 l 222 1100 l 63 1100 l 210 1367 l 471 1367 l 618 1100 l 458 1100 m 563 383 q 443 529 563 529 q 356 490 385 529 q 326 385 326 451 l 326 0 l 63 0 l 63 1056 l 322 1056 l 322 700 l 328 700 q 542 793 403 793 q 751 709 675 793 q 826 483 826 625 l 826 0 l 563 0 l 563 383 z "},"Ħ":{"ha":1083,"x_min":7,"x_max":1076,"o":"m 368 361 l 368 0 l 90 0 l 90 696 l 7 696 l 7 883 l 90 883 l 90 1000 l 368 1000 l 368 883 l 715 883 l 715 1000 l 993 1000 l 993 883 l 1076 883 l 1076 696 l 993 696 l 993 0 l 715 0 l 715 361 l 368 361 m 368 604 l 715 604 l 715 696 l 368 696 l 368 604 z "},"ħ":{"ha":882,"x_min":-21,"x_max":826,"o":"m 326 385 l 326 0 l 63 0 l 63 838 l -21 838 l -21 976 l 63 976 l 63 1056 l 322 1056 l 322 976 l 597 976 l 597 838 l 322 838 l 322 700 l 328 700 q 542 793 403 793 q 751 709 675 793 q 826 483 826 625 l 826 0 l 563 0 l 563 383 q 443 529 563 529 q 356 490 385 529 q 326 385 326 451 z "},"Ĩ":{"ha":417,"x_min":-37,"x_max":454,"o":"m -19 1060 l -37 1261 q 8 1294 -8 1283 q 53 1314 25 1304 q 111 1324 82 1324 q 222 1301 156 1324 q 321 1279 288 1279 q 436 1332 386 1279 l 454 1131 q 322 1071 397 1071 q 207 1093 274 1071 q 106 1115 140 1115 q 55 1106 79 1115 q 19 1088 31 1096 q -19 1060 7 1079 m 69 0 l 69 1000 l 347 1000 l 347 0 l 69 0 z "},"ĩ":{"ha":389,"x_min":-51,"x_max":440,"o":"m -33 833 l -51 1035 q -6 1067 -22 1057 q 40 1088 11 1078 q 97 1097 68 1097 q 208 1075 142 1097 q 307 1053 274 1053 q 422 1106 372 1053 l 440 904 q 308 844 383 844 q 193 867 260 844 q 92 889 126 889 q 41 879 65 889 q 5 861 17 869 q -33 833 -7 853 m 63 0 l 63 774 l 326 774 l 326 0 l 63 0 z "},"Ī":{"ha":417,"x_min":-35,"x_max":451,"o":"m -35 1100 l -35 1288 l 451 1288 l 451 1100 l -35 1100 m 69 0 l 69 1000 l 347 1000 l 347 0 l 69 0 z "},"ī":{"ha":389,"x_min":-49,"x_max":438,"o":"m -49 874 l -49 1061 l 438 1061 l 438 874 l -49 874 m 63 0 l 63 774 l 326 774 l 326 0 l 63 0 z "},"Ĭ":{"ha":417,"x_min":-62,"x_max":478,"o":"m -62 1310 l 136 1310 q 156 1253 136 1274 q 208 1232 176 1232 q 259 1253 239 1232 q 279 1310 279 1274 l 478 1310 q 409 1126 478 1193 q 208 1060 340 1060 q 8 1128 78 1060 q -62 1310 -62 1197 m 69 0 l 69 1000 l 347 1000 l 347 0 l 69 0 z "},"ĭ":{"ha":389,"x_min":-76,"x_max":464,"o":"m -76 1083 l 122 1083 q 142 1026 122 1047 q 194 1006 163 1006 q 245 1026 225 1006 q 265 1083 265 1047 l 464 1083 q 395 900 464 967 q 194 833 326 833 q -6 902 64 833 q -76 1083 -76 971 m 63 0 l 63 774 l 326 774 l 326 0 l 63 0 z "},"Į":{"ha":417,"x_min":-57,"x_max":347,"o":"m 69 0 l 69 1000 l 347 1000 l 347 0 q 201 -47 254 -4 q 147 -135 147 -90 q 203 -183 147 -183 q 308 -154 258 -183 l 326 -324 q 144 -371 246 -371 q -7 -325 43 -371 q -57 -208 -57 -279 q -21 -87 -57 -142 q 69 0 15 -33 z "},"į":{"ha":389,"x_min":-64,"x_max":350,"o":"m 194 818 q 82 860 126 818 q 38 969 38 901 q 81 1079 38 1038 q 194 1121 125 1121 q 306 1079 263 1121 q 350 969 350 1038 q 306 860 350 901 q 194 818 261 818 m 63 0 l 63 774 l 326 774 l 326 0 q 190 -46 239 -4 q 140 -131 140 -87 q 200 -183 140 -183 q 301 -154 253 -183 l 319 -324 q 133 -371 238 -371 q -17 -324 29 -371 q -64 -204 -64 -278 q 63 0 -64 -87 z "},"İ":{"ha":417,"x_min":53,"x_max":365,"o":"m 210 1051 q 97 1093 142 1051 q 53 1203 53 1135 q 97 1313 53 1271 q 210 1354 140 1354 q 322 1313 278 1354 q 365 1203 365 1271 q 321 1093 365 1135 q 210 1051 276 1051 m 69 0 l 69 1000 l 347 1000 l 347 0 l 69 0 z "},"ı":{"ha":389,"x_min":63,"x_max":326,"o":"m 63 0 l 63 774 l 326 774 l 326 0 l 63 0 z "},"Ĳ":{"ha":1004,"x_min":69,"x_max":942,"o":"m 69 0 l 69 1000 l 347 1000 l 347 0 l 69 0 m 431 0 l 451 257 q 542 244 492 244 q 664 368 664 244 l 664 1000 l 942 1000 l 942 382 q 849 74 942 167 q 585 -19 757 -19 q 431 0 497 -19 z "},"ĳ":{"ha":794,"x_min":38,"x_max":756,"o":"m 194 818 q 82 860 126 818 q 38 969 38 901 q 81 1079 38 1038 q 194 1121 125 1121 q 306 1079 263 1121 q 350 969 350 1038 q 306 860 350 901 q 194 818 261 818 m 600 818 q 488 860 532 818 q 443 969 443 901 q 487 1079 443 1038 q 600 1121 531 1121 q 712 1079 668 1121 q 756 969 756 1038 q 711 860 756 901 q 600 818 667 818 m 63 0 l 63 774 l 326 774 l 326 0 l 63 0 m 732 29 q 656 -205 732 -118 q 431 -292 579 -292 q 282 -276 333 -292 l 300 -54 q 369 -62 336 -62 q 444 -38 421 -62 q 468 40 468 -14 l 468 774 l 732 774 l 732 29 z "},"Ĵ":{"ha":588,"x_min":14,"x_max":643,"o":"m 483 1063 l 365 1156 l 247 1063 l 88 1063 l 235 1329 l 496 1329 l 643 1063 l 483 1063 m 14 0 l 35 257 q 125 244 75 244 q 247 368 247 244 l 247 1000 l 525 1000 l 525 382 q 433 74 525 167 q 168 -19 340 -19 q 14 0 81 -19 z "},"ĵ":{"ha":406,"x_min":-107,"x_max":476,"o":"m 317 836 l 199 929 l 81 836 l -79 836 l 68 1103 l 329 1103 l 476 836 l 317 836 m 343 29 q 267 -205 343 -118 q 42 -292 190 -292 q -107 -276 -56 -292 l -89 -54 q -19 -62 -53 -62 q 56 -38 32 -62 q 79 40 79 -14 l 79 774 l 343 774 l 343 29 z "},"Ķ":{"ha":1007,"x_min":69,"x_max":1000,"o":"m 69 0 l 69 1000 l 347 1000 l 347 581 l 622 1000 l 965 1000 l 608 511 l 1000 0 l 654 0 l 347 404 l 347 0 l 69 0 m 335 -347 l 376 -62 l 668 -62 l 515 -347 l 335 -347 z "},"ķ":{"ha":847,"x_min":63,"x_max":847,"o":"m 528 0 l 326 311 l 326 0 l 63 0 l 63 1056 l 326 1056 l 326 469 l 506 774 l 818 774 l 574 400 l 847 0 l 528 0 m 254 -347 l 296 -62 l 588 -62 l 435 -347 l 254 -347 z "},"Ĺ":{"ha":743,"x_min":69,"x_max":708,"o":"m 296 1063 l 122 1063 l 186 1329 l 513 1329 l 296 1063 m 69 0 l 69 1000 l 347 1000 l 347 257 l 708 257 l 708 0 l 69 0 z "},"ĺ":{"ha":389,"x_min":63,"x_max":499,"o":"m 282 1100 l 108 1100 l 172 1367 l 499 1367 l 282 1100 m 63 0 l 63 1056 l 326 1056 l 326 0 l 63 0 z "},"Ļ":{"ha":743,"x_min":69,"x_max":708,"o":"m 69 0 l 69 1000 l 347 1000 l 347 257 l 708 257 l 708 0 l 69 0 m 203 -347 l 244 -62 l 536 -62 l 383 -347 l 203 -347 z "},"ļ":{"ha":389,"x_min":11,"x_max":344,"o":"m 63 0 l 63 1056 l 326 1056 l 326 0 l 63 0 m 11 -347 l 53 -62 l 344 -62 l 192 -347 l 11 -347 z "},"Ľ":{"ha":743,"x_min":69,"x_max":708,"o":"m 69 0 l 69 1000 l 347 1000 l 347 257 l 708 257 l 708 0 l 69 0 m 400 688 l 419 1000 l 640 1000 l 561 688 l 400 688 z "},"ľ":{"ha":590,"x_min":63,"x_max":611,"o":"m 63 0 l 63 1056 l 326 1056 l 326 0 l 63 0 m 371 743 l 390 1056 l 611 1056 l 532 743 l 371 743 z "},"Ŀ":{"ha":743,"x_min":69,"x_max":724,"o":"m 69 0 l 69 1000 l 347 1000 l 347 257 l 708 257 l 708 0 l 69 0 m 568 408 q 456 450 500 408 q 411 560 411 492 q 455 669 411 628 q 568 711 499 711 q 680 669 636 711 q 724 560 724 628 q 679 450 724 492 q 568 408 635 408 z "},"ŀ":{"ha":674,"x_min":63,"x_max":683,"o":"m 63 0 l 63 1056 l 326 1056 l 326 0 l 63 0 m 528 388 q 415 429 460 388 q 371 539 371 471 q 415 649 371 607 q 528 690 458 690 q 640 649 596 690 q 683 539 683 607 q 639 429 683 471 q 528 388 594 388 z "},"Ł":{"ha":779,"x_min":7,"x_max":744,"o":"m 744 0 l 106 0 l 106 378 l 7 353 l 7 575 l 106 600 l 106 1000 l 383 1000 l 383 671 l 606 728 l 606 506 l 383 449 l 383 257 l 744 257 l 744 0 z "},"ł":{"ha":458,"x_min":0,"x_max":458,"o":"m 361 0 l 97 0 l 97 394 l 0 368 l 0 597 l 97 624 l 97 1056 l 361 1056 l 361 696 l 458 722 l 458 493 l 361 467 l 361 0 z "},"Ń":{"ha":1032,"x_min":69,"x_max":963,"o":"m 604 1063 l 431 1063 l 494 1329 l 821 1329 l 604 1063 m 69 0 l 69 1000 l 347 1000 l 706 424 l 706 1000 l 963 1000 l 963 0 l 685 0 l 326 528 l 326 0 l 69 0 z "},"ń":{"ha":882,"x_min":63,"x_max":826,"o":"m 529 836 l 356 836 l 419 1103 l 746 1103 l 529 836 m 63 0 l 63 774 l 322 774 l 322 686 l 328 686 q 549 793 410 793 q 753 709 679 793 q 826 483 826 625 l 826 0 l 563 0 l 563 369 q 443 515 563 515 q 356 476 385 515 q 326 371 326 438 l 326 0 l 63 0 z "},"Ņ":{"ha":1032,"x_min":69,"x_max":963,"o":"m 69 0 l 69 1000 l 347 1000 l 706 424 l 706 1000 l 963 1000 l 963 0 l 685 0 l 326 528 l 326 0 l 69 0 m 347 -347 l 389 -62 l 681 -62 l 528 -347 l 347 -347 z "},"ņ":{"ha":882,"x_min":63,"x_max":826,"o":"m 63 0 l 63 774 l 322 774 l 322 686 l 328 686 q 549 793 410 793 q 753 709 679 793 q 826 483 826 625 l 826 0 l 563 0 l 563 369 q 443 515 563 515 q 356 476 385 515 q 326 371 326 438 l 326 0 l 63 0 m 272 -347 l 314 -62 l 606 -62 l 453 -347 l 272 -347 z "},"Ň":{"ha":1032,"x_min":69,"x_max":963,"o":"m 647 1063 l 386 1063 l 239 1329 l 399 1329 l 517 1236 l 635 1329 l 794 1329 l 647 1063 m 69 0 l 69 1000 l 347 1000 l 706 424 l 706 1000 l 963 1000 l 963 0 l 685 0 l 326 528 l 326 0 l 69 0 z "},"ň":{"ha":882,"x_min":63,"x_max":826,"o":"m 572 836 l 311 836 l 164 1103 l 324 1103 l 442 1010 l 560 1103 l 719 1103 l 572 836 m 63 0 l 63 774 l 322 774 l 322 686 l 328 686 q 549 793 410 793 q 753 709 679 793 q 826 483 826 625 l 826 0 l 563 0 l 563 369 q 443 515 563 515 q 356 476 385 515 q 326 371 326 438 l 326 0 l 63 0 z "},"Ō":{"ha":1082,"x_min":35,"x_max":1047,"o":"m 299 1100 l 299 1288 l 785 1288 l 785 1100 l 299 1100 m 35 499 q 176 876 35 732 q 539 1019 318 1019 q 904 876 761 1019 q 1047 499 1047 732 q 907 124 1047 268 q 542 -19 767 -19 q 176 124 317 -19 q 35 499 35 268 m 540 244 q 702 309 642 244 q 763 481 763 374 q 699 656 763 590 q 539 721 636 721 q 381 656 443 721 q 319 481 319 590 q 381 310 319 375 q 540 244 442 244 z "},"ō":{"ha":882,"x_min":28,"x_max":854,"o":"m 199 874 l 199 1061 l 685 1061 l 685 874 l 199 874 m 144 95 q 86 152 144 95 q 28 386 28 210 q 144 678 28 563 q 442 793 260 793 q 739 678 624 793 q 854 386 854 563 q 739 95 854 210 q 442 -19 624 -19 q 144 95 260 -19 m 442 224 q 538 264 499 224 q 576 371 576 304 q 538 479 576 436 q 442 522 500 522 q 344 479 382 522 q 306 371 306 436 q 344 264 306 304 q 442 224 383 224 z "},"Ŏ":{"ha":1082,"x_min":35,"x_max":1047,"o":"m 271 1310 l 469 1310 q 490 1253 469 1274 q 542 1232 510 1232 q 592 1253 572 1232 q 613 1310 613 1274 l 811 1310 q 742 1126 811 1193 q 542 1060 674 1060 q 341 1128 411 1060 q 271 1310 271 1197 m 35 499 q 176 876 35 732 q 539 1019 318 1019 q 904 876 761 1019 q 1047 499 1047 732 q 907 124 1047 268 q 542 -19 767 -19 q 176 124 317 -19 q 35 499 35 268 m 540 244 q 702 309 642 244 q 763 481 763 374 q 699 656 763 590 q 539 721 636 721 q 381 656 443 721 q 319 481 319 590 q 381 310 319 375 q 540 244 442 244 z "},"ŏ":{"ha":882,"x_min":28,"x_max":854,"o":"m 171 1083 l 369 1083 q 390 1026 369 1047 q 442 1006 410 1006 q 492 1026 472 1006 q 513 1083 513 1047 l 711 1083 q 642 900 711 967 q 442 833 574 833 q 241 902 311 833 q 171 1083 171 971 m 144 95 q 86 152 144 95 q 28 386 28 210 q 144 678 28 563 q 442 793 260 793 q 739 678 624 793 q 854 386 854 563 q 739 95 854 210 q 442 -19 624 -19 q 144 95 260 -19 m 442 224 q 538 264 499 224 q 576 371 576 304 q 538 479 576 436 q 442 522 500 522 q 344 479 382 522 q 306 371 306 436 q 344 264 306 304 q 442 224 383 224 z "},"Ő":{"ha":1082,"x_min":35,"x_max":1047,"o":"m 731 1063 l 592 1063 l 697 1329 l 967 1329 l 731 1063 m 489 1063 l 350 1063 l 400 1329 l 669 1329 l 489 1063 m 35 499 q 176 876 35 732 q 539 1019 318 1019 q 904 876 761 1019 q 1047 499 1047 732 q 907 124 1047 268 q 542 -19 767 -19 q 176 124 317 -19 q 35 499 35 268 m 540 244 q 702 309 642 244 q 763 481 763 374 q 699 656 763 590 q 539 721 636 721 q 381 656 443 721 q 319 481 319 590 q 381 310 319 375 q 540 244 442 244 z "},"ő":{"ha":882,"x_min":28,"x_max":867,"o":"m 631 836 l 492 836 l 597 1103 l 867 1103 l 631 836 m 389 836 l 250 836 l 300 1103 l 569 1103 l 389 836 m 144 95 q 86 152 144 95 q 28 386 28 210 q 144 678 28 563 q 442 793 260 793 q 739 678 624 793 q 854 386 854 563 q 739 95 854 210 q 442 -19 624 -19 q 144 95 260 -19 m 442 224 q 538 264 499 224 q 576 371 576 304 q 538 479 576 436 q 442 522 500 522 q 344 479 382 522 q 306 371 306 436 q 344 264 306 304 q 442 224 383 224 z "},"Œ":{"ha":1379,"x_min":35,"x_max":1324,"o":"m 604 0 q 182 141 329 0 q 35 497 35 282 q 170 861 35 722 q 588 1000 306 1000 l 1324 1000 l 1324 715 l 921 715 l 921 619 l 1296 619 l 1296 363 l 921 363 l 921 257 l 1324 257 l 1324 0 l 604 0 m 586 715 q 388 656 457 715 q 319 490 319 596 q 388 319 319 382 q 592 257 457 257 l 643 257 l 643 715 l 586 715 z "},"œ":{"ha":1326,"x_min":28,"x_max":1299,"o":"m 1249 11 q 1021 -19 1157 -19 q 701 78 817 -19 q 442 -19 596 -19 q 144 95 260 -19 q 28 386 28 210 q 144 678 28 563 q 442 793 260 793 q 696 700 592 793 q 939 793 793 793 q 1204 678 1110 793 q 1299 389 1299 564 q 1292 286 1299 325 l 846 286 q 925 215 871 235 q 1071 196 979 196 q 1228 219 1153 196 l 1249 11 m 944 550 q 831 443 850 550 l 1051 443 q 1019 519 1049 489 q 944 550 989 550 m 442 224 q 538 264 499 224 q 576 371 576 304 q 538 479 576 436 q 442 522 500 522 q 344 479 382 522 q 306 371 306 436 q 344 264 306 304 q 442 224 383 224 z "},"Ŕ":{"ha":908,"x_min":69,"x_max":908,"o":"m 542 1063 l 368 1063 l 432 1329 l 758 1329 l 542 1063 m 69 0 l 69 1000 l 394 1000 q 713 917 594 1000 q 831 667 831 833 q 783 463 831 542 q 628 338 731 376 l 908 0 l 582 0 l 347 300 l 347 0 l 69 0 m 410 715 l 347 715 l 347 522 l 418 522 q 546 629 546 522 q 410 715 546 715 z "},"ŕ":{"ha":597,"x_min":63,"x_max":611,"o":"m 394 836 l 221 836 l 285 1103 l 611 1103 l 394 836 m 63 0 l 63 774 l 322 774 l 322 683 l 328 683 q 583 793 383 793 l 565 490 q 379 444 432 497 q 326 254 326 392 l 326 0 l 63 0 z "},"Ŗ":{"ha":908,"x_min":69,"x_max":908,"o":"m 69 0 l 69 1000 l 394 1000 q 713 917 594 1000 q 831 667 831 833 q 783 463 831 542 q 628 338 731 376 l 908 0 l 582 0 l 347 300 l 347 0 l 69 0 m 410 715 l 347 715 l 347 522 l 418 522 q 546 629 546 522 q 410 715 546 715 m 285 -347 l 326 -62 l 618 -62 l 465 -347 l 285 -347 z "},"ŗ":{"ha":597,"x_min":14,"x_max":583,"o":"m 63 0 l 63 774 l 322 774 l 322 683 l 328 683 q 583 793 383 793 l 565 490 q 379 444 432 497 q 326 254 326 392 l 326 0 l 63 0 m 14 -347 l 56 -62 l 347 -62 l 194 -347 l 14 -347 z "},"Ř":{"ha":908,"x_min":69,"x_max":908,"o":"m 585 1063 l 324 1063 l 176 1329 l 336 1329 l 454 1236 l 572 1329 l 732 1329 l 585 1063 m 69 0 l 69 1000 l 394 1000 q 713 917 594 1000 q 831 667 831 833 q 783 463 831 542 q 628 338 731 376 l 908 0 l 582 0 l 347 300 l 347 0 l 69 0 m 410 715 l 347 715 l 347 522 l 418 522 q 546 629 546 522 q 410 715 546 715 z "},"ř":{"ha":597,"x_min":33,"x_max":589,"o":"m 442 836 l 181 836 l 33 1103 l 193 1103 l 311 1010 l 429 1103 l 589 1103 l 442 836 m 63 0 l 63 774 l 322 774 l 322 683 l 328 683 q 583 793 383 793 l 565 490 q 379 444 432 497 q 326 254 326 392 l 326 0 l 63 0 z "},"Ś":{"ha":776,"x_min":35,"x_max":756,"o":"m 476 1063 l 303 1063 l 367 1329 l 693 1329 l 476 1063 m 51 36 l 65 293 q 336 244 188 244 q 471 299 471 244 q 443 334 471 321 q 339 364 415 347 q 112 467 189 396 q 35 679 35 539 q 130 926 35 833 q 419 1019 225 1019 q 693 972 578 1019 l 679 681 q 438 721 549 721 q 319 664 319 721 q 345 628 319 642 q 440 600 371 615 q 678 501 600 567 q 756 304 756 435 q 654 69 756 158 q 354 -19 553 -19 q 228 -11 285 -19 q 138 7 171 -3 q 51 36 106 17 z "},"ś":{"ha":658,"x_min":28,"x_max":651,"o":"m 417 836 l 243 836 l 307 1103 l 633 1103 l 417 836 m 35 31 l 53 239 q 304 196 153 196 q 401 225 401 196 q 379 246 401 239 q 264 272 357 253 q 86 351 144 297 q 28 519 28 406 q 117 716 28 639 q 375 793 207 793 q 604 750 508 793 l 586 486 q 368 522 475 522 q 305 516 322 522 q 288 494 288 510 q 307 473 288 479 q 418 451 326 467 q 651 239 651 414 q 311 -19 651 -19 q 35 31 147 -19 z "},"Ŝ":{"ha":776,"x_min":35,"x_max":756,"o":"m 507 1063 l 389 1156 l 271 1063 l 111 1063 l 258 1329 l 519 1329 l 667 1063 l 507 1063 m 51 36 l 65 293 q 336 244 188 244 q 471 299 471 244 q 443 334 471 321 q 339 364 415 347 q 112 467 189 396 q 35 679 35 539 q 130 926 35 833 q 419 1019 225 1019 q 693 972 578 1019 l 679 681 q 438 721 549 721 q 319 664 319 721 q 345 628 319 642 q 440 600 371 615 q 678 501 600 567 q 756 304 756 435 q 654 69 756 158 q 354 -19 553 -19 q 228 -11 285 -19 q 138 7 171 -3 q 51 36 106 17 z "},"ŝ":{"ha":658,"x_min":28,"x_max":651,"o":"m 447 836 l 329 929 l 211 836 l 51 836 l 199 1103 l 460 1103 l 607 836 l 447 836 m 35 31 l 53 239 q 304 196 153 196 q 401 225 401 196 q 379 246 401 239 q 264 272 357 253 q 86 351 144 297 q 28 519 28 406 q 117 716 28 639 q 375 793 207 793 q 604 750 508 793 l 586 486 q 368 522 475 522 q 305 516 322 522 q 288 494 288 510 q 307 473 288 479 q 418 451 326 467 q 651 239 651 414 q 311 -19 651 -19 q 35 31 147 -19 z "},"Ş":{"ha":776,"x_min":35,"x_max":756,"o":"m 374 -371 q 222 -350 275 -371 l 240 -211 q 319 -225 279 -225 q 382 -186 382 -225 q 361 -151 382 -162 q 290 -135 340 -140 l 322 -19 q 51 36 193 -15 l 65 293 q 336 244 188 244 q 471 299 471 244 q 443 334 471 321 q 339 364 415 347 q 112 467 189 396 q 35 679 35 539 q 130 926 35 833 q 419 1019 225 1019 q 693 972 578 1019 l 679 681 q 438 721 549 721 q 319 664 319 721 q 345 628 319 642 q 440 600 371 615 q 678 501 600 567 q 756 304 756 435 q 674 88 756 174 q 429 -15 592 1 l 426 -61 q 585 -210 585 -75 q 535 -326 585 -282 q 374 -371 485 -371 z "},"ş":{"ha":658,"x_min":28,"x_max":651,"o":"m 318 -371 q 167 -350 219 -371 l 185 -211 q 264 -225 224 -225 q 326 -186 326 -225 q 306 -151 326 -162 q 235 -135 285 -140 l 267 -18 q 35 31 128 -12 l 53 239 q 304 196 153 196 q 401 225 401 196 q 379 246 401 239 q 264 272 357 253 q 86 351 144 297 q 28 519 28 406 q 117 716 28 639 q 375 793 207 793 q 604 750 508 793 l 586 486 q 368 522 475 522 q 305 516 322 522 q 288 494 288 510 q 307 473 288 479 q 418 451 326 467 q 651 239 651 414 q 374 -17 651 7 l 371 -61 q 529 -210 529 -75 q 479 -326 529 -282 q 318 -371 429 -371 z "},"Š":{"ha":776,"x_min":35,"x_max":756,"o":"m 519 1063 l 258 1063 l 111 1329 l 271 1329 l 389 1236 l 507 1329 l 667 1329 l 519 1063 m 51 36 l 65 293 q 336 244 188 244 q 471 299 471 244 q 443 334 471 321 q 339 364 415 347 q 112 467 189 396 q 35 679 35 539 q 130 926 35 833 q 419 1019 225 1019 q 693 972 578 1019 l 679 681 q 438 721 549 721 q 319 664 319 721 q 345 628 319 642 q 440 600 371 615 q 678 501 600 567 q 756 304 756 435 q 654 69 756 158 q 354 -19 553 -19 q 228 -11 285 -19 q 138 7 171 -3 q 51 36 106 17 z "},"š":{"ha":658,"x_min":28,"x_max":651,"o":"m 460 836 l 199 836 l 51 1103 l 211 1103 l 329 1010 l 447 1103 l 607 1103 l 460 836 m 35 31 l 53 239 q 304 196 153 196 q 401 225 401 196 q 379 246 401 239 q 264 272 357 253 q 86 351 144 297 q 28 519 28 406 q 117 716 28 639 q 375 793 207 793 q 604 750 508 793 l 586 486 q 368 522 475 522 q 305 516 322 522 q 288 494 288 510 q 307 473 288 479 q 418 451 326 467 q 651 239 651 414 q 311 -19 651 -19 q 35 31 147 -19 z "},"Ţ":{"ha":775,"x_min":7,"x_max":768,"o":"m 7 715 l 7 1000 l 768 1000 l 768 715 l 526 715 l 526 0 l 249 0 l 249 715 l 7 715 m 201 -347 l 243 -62 l 535 -62 l 382 -347 l 201 -347 z "},"ţ":{"ha":606,"x_min":7,"x_max":592,"o":"m 119 315 l 119 524 l 7 524 l 7 774 l 140 774 l 168 961 l 383 961 l 383 774 l 574 774 l 574 524 l 383 524 l 383 332 q 406 249 383 274 q 475 224 428 224 q 574 236 524 224 l 592 0 q 425 -19 525 -19 q 188 68 256 -19 q 119 315 119 156 m 175 -347 l 217 -62 l 508 -62 l 356 -347 l 175 -347 z "},"Ť":{"ha":775,"x_min":7,"x_max":768,"o":"m 518 1063 l 257 1063 l 110 1329 l 269 1329 l 388 1236 l 506 1329 l 665 1329 l 518 1063 m 7 715 l 7 1000 l 768 1000 l 768 715 l 526 715 l 526 0 l 249 0 l 249 715 l 7 715 z "},"ť":{"ha":606,"x_min":7,"x_max":657,"o":"m 417 810 l 436 1122 l 657 1122 l 578 810 l 417 810 m 119 315 l 119 524 l 7 524 l 7 774 l 140 774 l 168 961 l 383 961 l 383 774 l 574 774 l 574 524 l 383 524 l 383 332 q 406 249 383 274 q 475 224 428 224 q 574 236 524 224 l 592 0 q 425 -19 525 -19 q 188 68 256 -19 q 119 315 119 156 z "},"Ŧ":{"ha":775,"x_min":7,"x_max":768,"o":"m 667 332 l 528 332 l 528 0 l 250 0 l 250 332 l 111 332 l 111 519 l 250 519 l 250 715 l 7 715 l 7 1000 l 768 1000 l 768 715 l 528 715 l 528 519 l 667 519 l 667 332 z "},"ŧ":{"ha":606,"x_min":7,"x_max":592,"o":"m 592 0 q 461 -18 535 -15 q 425 -19 449 -19 q 140 154 197 -19 q 119 315 119 218 l 119 318 l 21 318 l 21 450 l 119 450 l 119 524 l 7 524 l 7 774 l 140 774 l 168 961 l 383 961 l 383 774 l 574 774 l 574 524 l 383 524 l 383 450 l 546 450 l 546 318 l 383 318 q 392 274 386 292 q 475 224 408 224 q 574 236 524 224 l 592 0 z "},"Ũ":{"ha":978,"x_min":63,"x_max":915,"o":"m 261 1060 l 243 1261 q 289 1294 272 1283 q 334 1314 306 1304 q 392 1324 363 1324 q 502 1301 436 1324 q 601 1279 568 1279 q 717 1332 667 1279 l 735 1131 q 603 1071 678 1071 q 488 1093 554 1071 q 386 1115 421 1115 q 335 1106 360 1115 q 299 1088 311 1096 q 261 1060 288 1079 m 63 425 l 63 1000 l 340 1000 l 340 426 q 489 240 340 240 q 638 428 638 240 l 638 1000 l 915 1000 l 915 425 q 802 103 915 226 q 489 -19 689 -19 q 171 99 279 -19 q 63 425 63 218 z "},"ũ":{"ha":869,"x_min":56,"x_max":807,"o":"m 207 833 l 189 1035 q 235 1067 218 1057 q 280 1088 251 1078 q 338 1097 308 1097 q 448 1075 382 1097 q 547 1053 514 1053 q 663 1106 613 1053 l 681 904 q 549 844 624 844 q 433 867 500 844 q 332 889 367 889 q 281 879 306 889 q 245 861 257 869 q 207 833 233 853 m 807 774 l 807 0 l 547 0 l 547 81 l 542 81 q 338 -19 464 -19 q 130 65 204 -19 q 56 290 56 149 l 56 774 l 319 774 l 319 369 q 432 224 319 224 q 543 368 543 224 l 543 774 l 807 774 z "},"Ū":{"ha":978,"x_min":63,"x_max":915,"o":"m 246 1100 l 246 1288 l 732 1288 l 732 1100 l 246 1100 m 63 425 l 63 1000 l 340 1000 l 340 426 q 489 240 340 240 q 638 428 638 240 l 638 1000 l 915 1000 l 915 425 q 802 103 915 226 q 489 -19 689 -19 q 171 99 279 -19 q 63 425 63 218 z "},"ū":{"ha":869,"x_min":56,"x_max":807,"o":"m 192 874 l 192 1061 l 678 1061 l 678 874 l 192 874 m 807 774 l 807 0 l 547 0 l 547 81 l 542 81 q 338 -19 464 -19 q 130 65 204 -19 q 56 290 56 149 l 56 774 l 319 774 l 319 369 q 432 224 319 224 q 543 368 543 224 l 543 774 l 807 774 z "},"Ŭ":{"ha":978,"x_min":63,"x_max":915,"o":"m 218 1310 l 417 1310 q 437 1253 417 1274 q 489 1232 457 1232 q 540 1253 519 1232 q 560 1310 560 1274 l 758 1310 q 690 1126 758 1193 q 489 1060 621 1060 q 288 1128 358 1060 q 218 1310 218 1197 m 63 425 l 63 1000 l 340 1000 l 340 426 q 489 240 340 240 q 638 428 638 240 l 638 1000 l 915 1000 l 915 425 q 802 103 915 226 q 489 -19 689 -19 q 171 99 279 -19 q 63 425 63 218 z "},"ŭ":{"ha":869,"x_min":56,"x_max":807,"o":"m 164 1083 l 363 1083 q 383 1026 363 1047 q 435 1006 403 1006 q 485 1026 465 1006 q 506 1083 506 1047 l 704 1083 q 635 900 704 967 q 435 833 567 833 q 234 902 304 833 q 164 1083 164 971 m 807 774 l 807 0 l 547 0 l 547 81 l 542 81 q 338 -19 464 -19 q 130 65 204 -19 q 56 290 56 149 l 56 774 l 319 774 l 319 369 q 432 224 319 224 q 543 368 543 224 l 543 774 l 807 774 z "},"Ů":{"ha":978,"x_min":63,"x_max":915,"o":"m 289 1253 q 348 1392 289 1333 q 489 1450 407 1450 q 631 1392 572 1450 q 690 1253 690 1333 q 631 1111 690 1169 q 489 1053 572 1053 q 348 1111 407 1053 q 289 1253 289 1169 m 448 1205 q 457 1196 448 1205 q 489 1188 465 1188 q 531 1205 513 1188 q 549 1246 549 1222 q 531 1288 549 1271 q 489 1306 513 1306 q 448 1288 465 1306 q 431 1246 431 1271 q 448 1205 431 1222 m 63 425 l 63 1000 l 340 1000 l 340 426 q 489 240 340 240 q 638 428 638 240 l 638 1000 l 915 1000 l 915 425 q 802 103 915 226 q 489 -19 689 -19 q 171 99 279 -19 q 63 425 63 218 z "},"ů":{"ha":869,"x_min":56,"x_max":807,"o":"m 235 1026 q 294 1165 235 1107 q 435 1224 353 1224 q 577 1165 518 1224 q 636 1026 636 1107 q 577 885 636 943 q 435 826 518 826 q 294 885 353 826 q 235 1026 235 943 m 394 978 q 402 970 394 978 q 435 961 411 961 q 476 978 458 961 q 494 1019 494 996 q 476 1062 494 1044 q 435 1079 458 1079 q 394 1062 411 1079 q 376 1019 376 1044 q 394 978 376 996 m 807 774 l 807 0 l 547 0 l 547 81 l 542 81 q 338 -19 464 -19 q 130 65 204 -19 q 56 290 56 149 l 56 774 l 319 774 l 319 369 q 432 224 319 224 q 543 368 543 224 l 543 774 l 807 774 z "},"Ű":{"ha":978,"x_min":63,"x_max":915,"o":"m 678 1063 l 539 1063 l 644 1329 l 914 1329 l 678 1063 m 436 1063 l 297 1063 l 347 1329 l 617 1329 l 436 1063 m 63 425 l 63 1000 l 340 1000 l 340 426 q 489 240 340 240 q 638 428 638 240 l 638 1000 l 915 1000 l 915 425 q 802 103 915 226 q 489 -19 689 -19 q 171 99 279 -19 q 63 425 63 218 z "},"ű":{"ha":869,"x_min":56,"x_max":860,"o":"m 624 836 l 485 836 l 590 1103 l 860 1103 l 624 836 m 382 836 l 243 836 l 293 1103 l 563 1103 l 382 836 m 807 774 l 807 0 l 547 0 l 547 81 l 542 81 q 338 -19 464 -19 q 130 65 204 -19 q 56 290 56 149 l 56 774 l 319 774 l 319 369 q 432 224 319 224 q 543 368 543 224 l 543 774 l 807 774 z "},"Ų":{"ha":978,"x_min":63,"x_max":915,"o":"m 693 -324 q 507 -371 611 -371 q 356 -324 403 -371 q 310 -204 310 -278 q 421 -15 310 -101 q 371 -8 404 -14 q 140 137 218 24 q 63 425 63 250 l 63 1000 l 340 1000 l 340 426 q 489 240 340 240 q 638 428 638 240 l 638 1000 l 915 1000 l 915 425 q 843 156 915 268 q 638 3 771 44 q 514 -135 514 -69 q 569 -183 514 -183 q 675 -154 625 -183 l 693 -324 z "},"ų":{"ha":869,"x_min":56,"x_max":807,"o":"m 547 0 l 547 81 l 542 81 q 338 -19 464 -19 q 130 65 204 -19 q 56 290 56 149 l 56 774 l 319 774 l 319 369 q 432 224 319 224 q 543 368 543 224 l 543 774 l 807 774 l 807 0 q 674 -47 724 -4 q 625 -132 625 -89 q 683 -183 625 -183 q 786 -154 736 -183 l 804 -324 q 618 -371 722 -371 q 467 -324 514 -371 q 421 -204 421 -278 q 547 0 421 -87 z "},"Ŵ":{"ha":1607,"x_min":10,"x_max":1597,"o":"m 915 1063 l 797 1156 l 679 1063 l 519 1063 l 667 1329 l 928 1329 l 1075 1063 l 915 1063 m 967 0 l 806 594 l 644 0 l 311 0 l 10 1000 l 326 1000 l 496 297 l 665 1000 l 971 1000 l 1136 299 l 1301 1000 l 1597 1000 l 1300 0 l 967 0 z "},"ŵ":{"ha":1314,"x_min":3,"x_max":1311,"o":"m 775 836 l 657 929 l 539 836 l 379 836 l 526 1103 l 788 1103 l 935 836 l 775 836 m 785 0 l 653 463 l 532 0 l 219 0 l 3 774 l 308 774 l 410 276 l 522 774 l 807 774 l 926 274 l 1019 774 l 1311 774 l 1097 0 l 785 0 z "},"Ŷ":{"ha":1008,"x_min":4,"x_max":1004,"o":"m 622 1063 l 504 1156 l 386 1063 l 226 1063 l 374 1329 l 635 1329 l 782 1063 l 622 1063 m 647 0 l 369 0 l 369 322 l 4 1000 l 326 1000 l 517 586 l 703 1000 l 1004 1000 l 647 322 l 647 0 z "},"ŷ":{"ha":878,"x_min":1,"x_max":872,"o":"m 557 836 l 439 929 l 321 836 l 161 836 l 308 1103 l 569 1103 l 717 836 l 557 836 m 254 -283 q 85 -265 157 -283 l 103 -51 q 193 -64 156 -64 q 300 -21 289 -64 l 303 -11 l 1 774 l 318 774 l 449 235 l 576 774 l 872 774 l 590 0 q 542 -108 568 -61 q 476 -197 515 -154 q 381 -261 438 -239 q 254 -283 325 -283 z "},"Ÿ":{"ha":1008,"x_min":4,"x_max":1004,"o":"m 442 1092 q 421 1070 442 1092 q 338 1049 400 1049 q 234 1092 275 1049 q 193 1197 193 1135 q 234 1300 193 1257 q 338 1343 275 1343 q 442 1300 400 1343 q 485 1197 485 1257 q 442 1092 485 1135 m 773 1092 q 752 1070 773 1092 q 668 1049 731 1049 q 563 1092 606 1049 q 521 1197 521 1135 q 563 1300 521 1257 q 668 1343 606 1343 q 773 1300 731 1343 q 815 1197 815 1257 q 773 1092 815 1135 m 647 0 l 369 0 l 369 322 l 4 1000 l 326 1000 l 517 586 l 703 1000 l 1004 1000 l 647 322 l 647 0 z "},"Ź":{"ha":853,"x_min":35,"x_max":818,"o":"m 514 1063 l 340 1063 l 404 1329 l 731 1329 l 514 1063 m 818 0 l 35 0 l 35 229 l 446 715 l 46 715 l 46 1000 l 797 1000 l 797 729 l 397 257 l 818 257 l 818 0 z "},"ź":{"ha":690,"x_min":28,"x_max":667,"o":"m 433 836 l 260 836 l 324 1103 l 650 1103 l 433 836 m 28 0 l 28 201 l 332 524 l 43 524 l 43 774 l 653 774 l 653 538 l 349 229 l 667 229 l 667 0 l 28 0 z "},"Ż":{"ha":853,"x_min":35,"x_max":818,"o":"m 428 1051 q 315 1093 360 1051 q 271 1203 271 1135 q 315 1313 271 1271 q 428 1354 358 1354 q 540 1313 496 1354 q 583 1203 583 1271 q 539 1093 583 1135 q 428 1051 494 1051 m 818 0 l 35 0 l 35 229 l 446 715 l 46 715 l 46 1000 l 797 1000 l 797 729 l 397 257 l 818 257 l 818 0 z "},"ż":{"ha":690,"x_min":28,"x_max":667,"o":"m 347 825 q 235 867 279 825 q 190 976 190 908 q 234 1086 190 1044 q 347 1128 278 1128 q 459 1086 415 1128 q 503 976 503 1044 q 458 867 503 908 q 347 825 414 825 m 28 0 l 28 201 l 332 524 l 43 524 l 43 774 l 653 774 l 653 538 l 349 229 l 667 229 l 667 0 l 28 0 z "},"Ž":{"ha":853,"x_min":35,"x_max":818,"o":"m 557 1063 l 296 1063 l 149 1329 l 308 1329 l 426 1236 l 544 1329 l 704 1329 l 557 1063 m 818 0 l 35 0 l 35 229 l 446 715 l 46 715 l 46 1000 l 797 1000 l 797 729 l 397 257 l 818 257 l 818 0 z "},"ž":{"ha":690,"x_min":28,"x_max":667,"o":"m 476 836 l 215 836 l 68 1103 l 228 1103 l 346 1010 l 464 1103 l 624 1103 l 476 836 m 28 0 l 28 201 l 332 524 l 43 524 l 43 774 l 653 774 l 653 538 l 349 229 l 667 229 l 667 0 l 28 0 z "},"ƒ":{"ha":690,"x_min":0,"x_max":676,"o":"m 156 -292 q 0 -276 53 -292 l 18 -54 q 88 -62 53 -62 q 168 -38 143 -62 q 193 40 193 -14 l 193 524 l 89 524 l 89 774 l 193 774 l 193 788 q 273 995 193 915 q 503 1075 353 1075 q 676 1057 614 1075 l 658 844 q 558 853 622 853 q 480 834 503 853 q 457 776 457 815 l 457 774 l 631 774 l 631 524 l 457 524 l 457 29 q 381 -205 457 -118 q 156 -292 304 -292 z "},"Ș":{"ha":776,"x_min":35,"x_max":756,"o":"m 51 36 l 65 293 q 336 244 188 244 q 471 299 471 244 q 443 334 471 321 q 339 364 415 347 q 112 467 189 396 q 35 679 35 539 q 130 926 35 833 q 419 1019 225 1019 q 693 972 578 1019 l 679 681 q 438 721 549 721 q 319 664 319 721 q 345 628 319 642 q 440 600 371 615 q 678 501 600 567 q 756 304 756 435 q 654 69 756 158 q 354 -19 553 -19 q 228 -11 285 -19 q 138 7 171 -3 q 51 36 106 17 m 219 -347 l 261 -62 l 553 -62 l 400 -347 l 219 -347 z "},"ș":{"ha":658,"x_min":28,"x_max":651,"o":"m 35 31 l 53 239 q 304 196 153 196 q 401 225 401 196 q 379 246 401 239 q 264 272 357 253 q 86 351 144 297 q 28 519 28 406 q 117 716 28 639 q 375 793 207 793 q 604 750 508 793 l 586 486 q 368 522 475 522 q 305 516 322 522 q 288 494 288 510 q 307 473 288 479 q 418 451 326 467 q 651 239 651 414 q 311 -19 651 -19 q 35 31 147 -19 m 160 -347 l 201 -62 l 493 -62 l 340 -347 l 160 -347 z "},"Ț":{"ha":775,"x_min":7,"x_max":768,"o":"m 7 715 l 7 1000 l 768 1000 l 768 715 l 526 715 l 526 0 l 249 0 l 249 715 l 7 715 m 201 -347 l 243 -62 l 535 -62 l 382 -347 l 201 -347 z "},"ț":{"ha":606,"x_min":7,"x_max":592,"o":"m 119 315 l 119 524 l 7 524 l 7 774 l 140 774 l 168 961 l 383 961 l 383 774 l 574 774 l 574 524 l 383 524 l 383 332 q 406 249 383 274 q 475 224 428 224 q 574 236 524 224 l 592 0 q 425 -19 525 -19 q 188 68 256 -19 q 119 315 119 156 m 175 -347 l 217 -62 l 508 -62 l 356 -347 l 175 -347 z "},"ȷ":{"ha":406,"x_min":-107,"x_max":343,"o":"m 343 29 q 267 -205 343 -118 q 42 -292 190 -292 q -107 -276 -56 -292 l -89 -54 q -19 -62 -53 -62 q 56 -38 32 -62 q 79 40 79 -14 l 79 774 l 343 774 l 343 29 z "},"ˆ":{"ha":694,"x_min":69,"x_max":625,"o":"m 465 836 l 347 929 l 229 836 l 69 836 l 217 1103 l 478 1103 l 625 836 l 465 836 z "},"ˇ":{"ha":694,"x_min":69,"x_max":625,"o":"m 478 836 l 217 836 l 69 1103 l 229 1103 l 347 1010 l 465 1103 l 625 1103 l 478 836 z "},"˘":{"ha":694,"x_min":76,"x_max":617,"o":"m 76 1083 l 275 1083 q 295 1026 275 1047 q 347 1006 315 1006 q 398 1026 378 1006 q 418 1083 418 1047 l 617 1083 q 548 900 617 967 q 347 833 479 833 q 147 902 217 833 q 76 1083 76 971 z "},"˙":{"ha":694,"x_min":192,"x_max":504,"o":"m 349 825 q 236 867 281 825 q 192 976 192 908 q 235 1086 192 1044 q 349 1128 279 1128 q 460 1086 417 1128 q 504 976 504 1044 q 460 867 504 908 q 349 825 415 825 z "},"˚":{"ha":694,"x_min":147,"x_max":549,"o":"m 147 1026 q 206 1165 147 1107 q 347 1224 265 1224 q 490 1165 431 1224 q 549 1026 549 1107 q 490 885 549 943 q 347 826 431 826 q 206 885 265 826 q 147 1026 147 943 m 306 978 q 315 970 306 978 q 347 961 324 961 q 389 978 371 961 q 407 1019 407 996 q 389 1062 407 1044 q 347 1079 371 1079 q 306 1062 324 1079 q 289 1019 289 1044 q 306 978 289 996 z "},"˛":{"ha":694,"x_min":218,"x_max":601,"o":"m 583 -154 l 601 -324 q 415 -371 519 -371 q 265 -324 311 -371 q 218 -204 218 -278 q 351 0 218 -92 l 543 0 q 422 -135 422 -69 q 478 -183 422 -183 q 583 -154 533 -183 z "},"˜":{"ha":694,"x_min":101,"x_max":593,"o":"m 119 833 l 101 1035 q 147 1067 131 1057 q 192 1088 164 1078 q 250 1097 221 1097 q 360 1075 294 1097 q 460 1053 426 1053 q 575 1106 525 1053 l 593 904 q 461 844 536 844 q 346 867 413 844 q 244 889 279 889 q 194 879 218 889 q 158 861 169 869 q 119 833 146 853 z "},"˝":{"ha":694,"x_min":156,"x_max":772,"o":"m 536 836 l 397 836 l 503 1103 l 772 1103 l 536 836 m 294 836 l 156 836 l 206 1103 l 475 1103 l 294 836 z "},"̦":{"ha":694,"x_min":178,"x_max":511,"o":"m 178 -347 l 219 -62 l 511 -62 l 358 -347 l 178 -347 z "},"Δ":{"ha":1060,"x_min":7,"x_max":1053,"o":"m 7 0 l 361 1000 l 694 1000 l 1053 0 l 7 0 m 665 243 l 518 681 l 372 243 l 665 243 z "},"Ω":{"ha":1078,"x_min":28,"x_max":1050,"o":"m 468 236 l 468 0 l 28 0 l 28 257 l 168 257 q 78 394 113 317 q 44 551 44 472 q 183 890 44 761 q 539 1019 322 1019 q 894 890 756 1019 q 1033 551 1033 761 q 999 394 1033 472 q 910 257 965 317 l 1050 257 l 1050 0 l 610 0 l 610 236 q 712 333 675 267 q 749 475 749 399 q 690 654 749 588 q 539 721 631 721 q 388 654 447 721 q 329 475 329 588 q 366 333 329 399 q 468 236 403 267 z "},"μ":{"ha":875,"x_min":56,"x_max":807,"o":"m 338 -19 l 319 -19 l 319 -264 l 56 -264 l 56 774 l 319 774 l 319 369 q 432 224 319 224 q 543 368 543 224 l 543 774 l 807 774 l 807 0 l 547 0 l 547 81 l 542 81 q 338 -19 464 -19 z "},"π":{"ha":1004,"x_min":28,"x_max":976,"o":"m 810 332 q 830 249 810 274 q 893 224 850 224 q 958 232 922 224 l 976 -4 q 838 -19 919 -19 q 611 70 676 -19 q 546 315 546 160 l 546 524 l 403 524 l 403 0 l 139 0 l 139 524 l 28 524 l 28 774 l 967 774 l 967 524 l 810 524 l 810 332 z "},"Ẁ":{"ha":1607,"x_min":10,"x_max":1597,"o":"m 711 1063 l 494 1329 l 821 1329 l 885 1063 l 711 1063 m 967 0 l 806 594 l 644 0 l 311 0 l 10 1000 l 326 1000 l 496 297 l 665 1000 l 971 1000 l 1136 299 l 1301 1000 l 1597 1000 l 1300 0 l 967 0 z "},"ẁ":{"ha":1314,"x_min":3,"x_max":1311,"o":"m 571 836 l 354 1103 l 681 1103 l 744 836 l 571 836 m 785 0 l 653 463 l 532 0 l 219 0 l 3 774 l 308 774 l 410 276 l 522 774 l 807 774 l 926 274 l 1019 774 l 1311 774 l 1097 0 l 785 0 z "},"Ẃ":{"ha":1607,"x_min":10,"x_max":1597,"o":"m 885 1063 l 711 1063 l 775 1329 l 1101 1329 l 885 1063 m 967 0 l 806 594 l 644 0 l 311 0 l 10 1000 l 326 1000 l 496 297 l 665 1000 l 971 1000 l 1136 299 l 1301 1000 l 1597 1000 l 1300 0 l 967 0 z "},"ẃ":{"ha":1314,"x_min":3,"x_max":1311,"o":"m 744 836 l 571 836 l 635 1103 l 961 1103 l 744 836 m 785 0 l 653 463 l 532 0 l 219 0 l 3 774 l 308 774 l 410 276 l 522 774 l 807 774 l 926 274 l 1019 774 l 1311 774 l 1097 0 l 785 0 z "},"Ẅ":{"ha":1607,"x_min":10,"x_max":1597,"o":"m 735 1092 q 714 1070 735 1092 q 631 1049 693 1049 q 527 1092 568 1049 q 486 1197 486 1135 q 527 1300 486 1257 q 631 1343 568 1343 q 735 1300 693 1343 q 778 1197 778 1257 q 735 1092 778 1135 m 1066 1092 q 1045 1070 1066 1092 q 961 1049 1024 1049 q 856 1092 899 1049 q 814 1197 814 1135 q 856 1300 814 1257 q 961 1343 899 1343 q 1066 1300 1024 1343 q 1108 1197 1108 1257 q 1066 1092 1108 1135 m 967 0 l 806 594 l 644 0 l 311 0 l 10 1000 l 326 1000 l 496 297 l 665 1000 l 971 1000 l 1136 299 l 1301 1000 l 1597 1000 l 1300 0 l 967 0 z "},"ẅ":{"ha":1314,"x_min":3,"x_max":1311,"o":"m 595 865 q 574 844 595 865 q 490 822 553 822 q 387 865 428 822 q 346 971 346 908 q 387 1074 346 1031 q 490 1117 428 1117 q 595 1074 553 1117 q 638 971 638 1031 q 595 865 638 908 m 926 865 q 905 844 926 865 q 821 822 883 822 q 716 865 758 822 q 674 971 674 908 q 716 1074 674 1031 q 821 1117 758 1117 q 926 1074 883 1117 q 968 971 968 1031 q 926 865 968 908 m 785 0 l 653 463 l 532 0 l 219 0 l 3 774 l 308 774 l 410 276 l 522 774 l 807 774 l 926 274 l 1019 774 l 1311 774 l 1097 0 l 785 0 z "},"Ỳ":{"ha":1008,"x_min":4,"x_max":1004,"o":"m 418 1063 l 201 1329 l 528 1329 l 592 1063 l 418 1063 m 647 0 l 369 0 l 369 322 l 4 1000 l 326 1000 l 517 586 l 703 1000 l 1004 1000 l 647 322 l 647 0 z "},"ỳ":{"ha":878,"x_min":1,"x_max":872,"o":"m 353 836 l 136 1103 l 463 1103 l 526 836 l 353 836 m 254 -283 q 85 -265 157 -283 l 103 -51 q 193 -64 156 -64 q 300 -21 289 -64 l 303 -11 l 1 774 l 318 774 l 449 235 l 576 774 l 872 774 l 590 0 q 542 -108 568 -61 q 476 -197 515 -154 q 381 -261 438 -239 q 254 -283 325 -283 z "},"–":{"ha":694,"x_min":42,"x_max":653,"o":"m 42 385 l 42 625 l 653 625 l 653 385 l 42 385 z "},"—":{"ha":1389,"x_min":42,"x_max":1347,"o":"m 42 385 l 42 625 l 1347 625 l 1347 385 l 42 385 z "},"‘":{"ha":411,"x_min":35,"x_max":376,"o":"m 376 1056 q 321 653 335 853 l 35 653 q 190 1056 90 854 l 376 1056 z "},"’":{"ha":411,"x_min":35,"x_max":376,"o":"m 35 653 q 90 1056 76 856 l 376 1056 q 221 653 321 854 l 35 653 z "},"‚":{"ha":411,"x_min":28,"x_max":369,"o":"m 28 -208 q 83 194 69 -6 l 369 194 q 214 -208 314 -7 l 28 -208 z "},"“":{"ha":750,"x_min":35,"x_max":715,"o":"m 376 1056 q 321 653 335 853 l 35 653 q 190 1056 90 854 l 376 1056 m 715 1056 q 660 653 674 853 l 374 653 q 529 1056 429 854 l 715 1056 z "},"”":{"ha":750,"x_min":35,"x_max":715,"o":"m 35 653 q 90 1056 76 856 l 376 1056 q 221 653 321 854 l 35 653 m 374 653 q 429 1056 415 856 l 715 1056 q 560 653 660 854 l 374 653 z "},"„":{"ha":750,"x_min":28,"x_max":708,"o":"m 28 -208 q 83 194 69 -6 l 369 194 q 214 -208 314 -7 l 28 -208 m 367 -208 q 422 194 408 -6 l 708 194 q 553 -208 653 -7 l 367 -208 z "},"†":{"ha":721,"x_min":38,"x_max":697,"o":"m 697 597 l 479 615 l 503 -139 l 232 -139 l 256 615 l 38 597 l 38 861 l 251 843 l 232 1056 l 503 1056 l 483 843 l 697 861 l 697 597 z "},"‡":{"ha":721,"x_min":38,"x_max":697,"o":"m 697 63 l 488 81 l 503 -139 l 232 -139 l 247 81 l 38 63 l 38 299 l 244 281 l 232 458 l 243 614 l 38 597 l 38 861 l 247 843 l 232 1056 l 503 1056 l 488 843 l 697 861 l 697 597 l 492 614 l 503 458 l 490 281 l 697 299 l 697 63 z "},"•":{"ha":581,"x_min":63,"x_max":518,"o":"m 63 476 q 127 645 63 582 q 290 708 192 708 q 454 645 390 708 q 518 476 518 582 q 454 309 518 372 q 290 246 390 246 q 127 309 192 246 q 63 476 63 372 z "},"…":{"ha":1275,"x_min":42,"x_max":1233,"o":"m 319 28 q 295 5 319 28 q 204 -19 271 -19 q 90 28 138 -19 q 42 143 42 76 q 90 257 42 208 q 204 306 138 306 q 319 257 271 306 q 367 143 367 208 q 319 28 367 76 m 752 28 q 728 5 752 28 q 638 -19 704 -19 q 523 28 571 -19 q 475 143 475 76 q 523 257 475 208 q 638 306 571 306 q 752 257 704 306 q 800 143 800 208 q 752 28 800 76 m 1185 28 q 1161 5 1185 28 q 1071 -19 1138 -19 q 956 28 1004 -19 q 908 143 908 76 q 956 257 908 208 q 1071 306 1004 306 q 1185 257 1138 306 q 1233 143 1233 208 q 1185 28 1233 76 z "},"‰":{"ha":1740,"x_min":14,"x_max":1726,"o":"m 464 947 q 501 910 464 947 q 539 749 539 874 q 465 550 539 624 q 276 476 390 476 q 88 550 163 476 q 14 749 14 624 q 89 947 14 874 q 276 1019 164 1019 q 464 947 389 1019 m 824 1000 l 1046 1000 l 368 0 l 146 0 l 824 1000 m 275 826 q 214 739 214 826 q 231 673 214 697 q 276 649 247 649 q 339 739 339 649 q 322 803 339 781 q 275 826 304 826 m 1276 54 q 1239 91 1276 54 q 1201 253 1201 128 q 1276 451 1201 378 q 1464 524 1351 524 q 1651 451 1576 524 q 1726 253 1726 378 q 1652 54 1726 128 q 1464 -19 1578 -19 q 1276 54 1350 -19 m 724 54 q 687 91 724 54 q 650 253 650 128 q 725 451 650 378 q 913 524 800 524 q 1100 451 1025 524 q 1175 253 1175 378 q 1101 54 1175 128 q 913 -19 1026 -19 q 724 54 799 -19 m 1464 153 q 1526 243 1526 153 q 1509 308 1526 285 q 1463 331 1492 331 q 1401 243 1401 331 q 1418 177 1401 201 q 1464 153 1435 153 m 913 153 q 975 243 975 153 q 958 308 975 285 q 911 331 940 331 q 850 243 850 331 q 867 177 850 201 q 913 153 883 153 z "},"‹":{"ha":519,"x_min":28,"x_max":485,"o":"m 221 42 l 28 389 l 193 736 l 485 736 l 319 389 l 485 42 l 221 42 z "},"›":{"ha":519,"x_min":35,"x_max":492,"o":"m 299 42 l 35 42 l 200 389 l 35 736 l 326 736 l 492 389 l 299 42 z "},"⁄":{"ha":178,"x_min":-361,"x_max":539,"o":"m -361 0 l 317 1000 l 539 1000 l -139 0 l -361 0 z "},"⁰":{"ha":521,"x_min":19,"x_max":501,"o":"m 260 451 q 84 526 149 451 q 19 732 19 601 q 85 942 19 864 q 258 1019 150 1019 q 434 941 367 1019 q 501 732 501 863 q 437 526 501 601 q 260 451 372 451 m 260 611 q 317 724 317 611 q 301 806 317 776 q 258 836 286 836 q 203 724 203 836 q 218 641 203 671 q 260 611 233 611 z "},"⁴":{"ha":521,"x_min":10,"x_max":506,"o":"m 10 557 l 10 674 l 236 1000 l 440 1000 l 440 689 l 506 689 l 506 557 l 440 557 l 440 458 l 264 458 l 264 557 l 10 557 m 154 689 l 264 689 l 264 851 l 154 689 z "},"€":{"ha":976,"x_min":25,"x_max":956,"o":"m 929 39 q 706 -17 826 -12 q 669 -18 693 -18 q 343 74 479 -18 q 164 342 207 167 l 29 342 l 69 467 l 146 467 l 146 517 l 25 517 l 65 642 l 163 642 q 343 919 204 819 q 675 1019 482 1019 q 956 968 836 1019 l 886 694 q 704 735 810 735 q 482 642 553 735 l 819 642 l 779 517 l 432 517 q 431 506 432 514 q 431 492 431 497 l 431 467 l 765 467 l 725 342 l 464 342 q 700 232 529 232 q 733 233 724 232 q 881 275 818 240 l 929 39 z "},"₹":{"ha":857,"x_min":56,"x_max":808,"o":"m 381 324 l 424 283 l 722 0 l 368 0 l 58 300 l 58 453 l 190 453 q 343 525 306 453 l 56 525 l 56 699 l 331 699 q 182 771 283 771 l 58 771 l 58 1000 l 808 1000 l 808 799 l 579 799 q 613 699 604 756 l 806 699 l 806 525 l 603 525 q 381 324 560 374 z "},"ℓ":{"ha":731,"x_min":63,"x_max":682,"o":"m 644 4 q 433 -19 567 -19 q 197 54 286 -19 q 76 260 107 128 q 63 399 63 321 l 63 592 q 64 654 63 633 q 155 931 75 843 q 383 1019 235 1019 q 591 940 514 1019 q 681 707 668 860 q 682 654 682 690 q 602 398 682 497 q 390 275 522 299 q 346 269 374 272 q 369 246 357 257 q 501 217 414 217 q 626 233 561 217 l 644 4 m 326 585 l 326 424 q 334 426 329 425 q 342 428 339 428 q 418 596 418 461 q 372 721 418 721 q 336 690 346 721 q 326 585 326 658 z "},"™":{"ha":1168,"x_min":7,"x_max":1126,"o":"m 7 814 l 7 1000 l 429 1000 l 429 814 l 315 814 l 315 472 l 121 472 l 121 814 l 7 814 m 468 472 l 468 1000 l 667 1000 l 804 668 l 947 1000 l 1126 1000 l 1126 472 l 953 472 l 953 714 l 853 472 l 735 472 l 642 703 l 642 472 l 468 472 z "},"Ω":{"ha":1078,"x_min":28,"x_max":1050,"o":"m 468 236 l 468 0 l 28 0 l 28 257 l 168 257 q 78 394 113 317 q 44 551 44 472 q 183 890 44 761 q 539 1019 322 1019 q 894 890 756 1019 q 1033 551 1033 761 q 999 394 1033 472 q 910 257 965 317 l 1050 257 l 1050 0 l 610 0 l 610 236 q 712 333 675 267 q 749 475 749 399 q 690 654 749 588 q 539 721 631 721 q 388 654 447 721 q 329 475 329 588 q 366 333 329 399 q 468 236 403 267 z "},"℮":{"ha":993,"x_min":71,"x_max":921,"o":"m 226 353 l 226 144 q 236 119 226 132 q 497 8 343 8 q 771 133 661 8 l 832 133 q 685 25 774 65 q 496 -15 597 -15 q 195 97 319 -15 q 71 367 71 208 q 195 639 71 526 q 496 751 319 751 q 797 639 672 751 q 921 367 921 526 l 921 357 l 232 357 q 226 353 226 357 m 232 378 l 761 378 q 765 383 765 378 l 765 593 q 754 619 765 608 q 497 728 649 728 q 238 615 343 728 q 226 589 226 607 l 226 383 q 232 378 226 378 z "},"∂":{"ha":856,"x_min":28,"x_max":821,"o":"m 404 -19 q 130 75 232 -19 q 28 322 28 169 q 139 597 28 490 q 421 703 250 703 q 532 693 482 703 q 240 906 438 842 l 325 1075 q 549 992 451 1051 q 704 852 646 933 q 792 678 763 771 q 821 485 821 585 q 706 122 821 264 q 404 -19 592 -19 m 436 464 q 339 425 375 464 q 303 325 303 386 q 334 239 303 271 q 414 207 365 207 q 508 248 471 207 q 544 353 544 289 q 515 433 544 401 q 436 464 485 464 z "},"∆":{"ha":1060,"x_min":7,"x_max":1053,"o":"m 7 0 l 361 1000 l 694 1000 l 1053 0 l 7 0 m 665 243 l 518 681 l 372 243 l 665 243 z "},"∏":{"ha":986,"x_min":69,"x_max":917,"o":"m 69 -174 l 69 1000 l 917 1000 l 917 -174 l 639 -174 l 639 743 l 347 743 l 347 -174 l 69 -174 z "},"∑":{"ha":810,"x_min":28,"x_max":782,"o":"m 278 410 l 28 729 l 28 1000 l 754 1000 l 754 715 l 393 715 l 596 453 l 350 83 l 782 83 l 782 -174 l 28 -174 l 28 42 l 278 410 z "},"−":{"ha":750,"x_min":56,"x_max":694,"o":"m 694 374 l 56 374 l 56 596 l 694 596 l 694 374 z "},"∕":{"ha":178,"x_min":-361,"x_max":539,"o":"m -361 0 l 317 1000 l 539 1000 l -139 0 l -361 0 z "},"√":{"ha":876,"x_min":28,"x_max":863,"o":"m 575 0 l 276 0 l 142 390 l 28 390 l 28 631 l 335 631 l 431 242 l 610 1056 l 863 1056 l 575 0 z "},"∞":{"ha":928,"x_min":28,"x_max":900,"o":"m 654 238 q 464 322 521 238 q 274 238 407 238 q 97 303 167 238 q 28 482 28 369 q 98 660 28 594 q 274 725 168 725 q 356 711 318 725 q 411 684 394 697 q 464 640 428 671 q 654 725 551 725 q 830 660 760 725 q 900 482 900 594 q 831 303 900 369 q 654 238 761 238 m 288 400 q 353 472 353 400 q 286 542 353 542 q 222 472 222 542 q 240 419 222 439 q 288 400 257 400 m 640 400 q 706 472 706 400 q 639 542 706 542 q 575 472 575 542 q 592 419 575 439 q 640 400 610 400 z "},"∫":{"ha":703,"x_min":0,"x_max":675,"o":"m 160 -283 q 0 -265 65 -283 l 18 -36 q 111 -47 63 -47 q 206 17 206 -47 l 206 788 q 285 995 206 915 q 515 1075 365 1075 q 675 1057 610 1075 l 657 800 q 564 811 613 811 q 491 788 513 811 q 469 719 469 765 l 469 4 q 390 -203 469 -124 q 160 -283 310 -283 z "},"≈":{"ha":750,"x_min":56,"x_max":694,"o":"m 56 481 l 56 717 q 239 776 140 776 q 392 751 301 776 q 526 726 482 726 q 694 781 629 726 l 694 544 q 522 483 631 483 q 371 508 458 483 q 238 533 283 533 q 56 481 131 533 m 56 200 l 56 408 q 239 468 140 468 q 392 443 301 468 q 526 418 482 418 q 694 472 629 418 l 694 264 q 522 203 631 203 q 371 228 458 203 q 238 253 283 253 q 56 200 131 253 z "},"≠":{"ha":750,"x_min":56,"x_max":694,"o":"m 694 228 l 403 228 l 368 110 l 160 110 l 194 228 l 56 228 l 56 436 l 257 436 l 276 506 l 56 506 l 56 742 l 347 742 l 382 860 l 590 860 l 556 742 l 694 742 l 694 506 l 485 506 l 465 436 l 694 436 l 694 228 z "},"≤":{"ha":750,"x_min":56,"x_max":694,"o":"m 56 388 l 56 665 l 694 828 l 694 578 l 318 503 l 694 429 l 694 221 l 56 388 m 694 0 l 56 0 l 56 194 l 694 194 l 694 0 z "},"≥":{"ha":750,"x_min":56,"x_max":694,"o":"m 694 388 l 56 221 l 56 429 l 432 503 l 56 578 l 56 828 l 694 665 l 694 388 m 56 0 l 56 194 l 694 194 l 694 0 l 56 0 z "},"◊":{"ha":781,"x_min":14,"x_max":767,"o":"m 264 0 l 14 458 l 264 917 l 517 917 l 767 458 l 517 0 l 264 0 m 390 208 l 514 458 l 390 685 l 267 458 l 390 208 z "},"ﬁ":{"ha":904,"x_min":14,"x_max":865,"o":"m 710 818 q 597 860 642 818 q 553 969 553 901 q 597 1079 553 1038 q 710 1121 640 1121 q 822 1079 778 1121 q 865 969 865 1038 q 821 860 865 901 q 710 818 776 818 m 382 0 l 118 0 l 118 524 l 14 524 l 14 774 l 118 774 l 118 829 q 198 1022 118 947 q 428 1096 278 1096 q 542 1078 488 1096 q 550 853 481 958 q 476 860 517 860 q 403 842 425 860 q 382 789 382 824 l 382 774 l 842 774 l 842 0 l 578 0 l 578 524 l 382 524 l 382 0 z "},"ﬂ":{"ha":904,"x_min":14,"x_max":842,"o":"m 14 524 l 14 774 l 118 774 l 118 788 q 198 995 118 915 q 428 1075 278 1075 q 536 1057 476 1075 l 536 847 q 476 853 513 853 q 403 834 425 853 q 382 776 382 815 l 382 774 l 514 774 l 514 524 l 382 524 l 382 0 l 118 0 l 118 524 l 14 524 m 578 0 l 578 1056 l 842 1056 l 842 0 l 578 0 z "}}}
